<?xml version="1.0" encoding="utf-8"?>
<!-- Generator: Adobe Illustrator 17.0.0, SVG Export Plug-In . SVG Version: 6.00 Build 0)  -->
<!DOCTYPE svg PUBLIC "-//W3C//DTD SVG 1.1//EN" "http://www.w3.org/Graphics/SVG/1.1/DTD/svg11.dtd">
<svg version="1.1" id="Livello_1" xmlns="http://www.w3.org/2000/svg" xmlns:xlink="http://www.w3.org/1999/xlink" x="0px" y="0px"
	 width="241.911px" height="60px" viewBox="0 0 241.911 60" enable-background="new 0 0 241.911 60" xml:space="preserve">
<g>
	<g transform="translate(-985.904 -3367.887)">
		<g>
			<path fill="none" d="M1249.415,3902.277l-12.117,19.772c-0.681,1.11-0.172,2.019,1.131,2.019h14.209
				c1.302,0,2.929-0.906,3.615-2.013l6.416-10.365L1249.415,3902.277z"/>
			<path fill="none" d="M1267.028,3883.49l-10.774-17.406c-0.686-1.107-2.312-2.014-3.615-2.014h-14.21
				c-1.303,0-1.811,0.909-1.13,2.019l13.796,22.511l7.755-10.919L1267.028,3883.49L1267.028,3883.49z"/>
		</g>
		
			<linearGradient id="SVGID_1_" gradientUnits="userSpaceOnUse" x1="3460.1777" y1="3943.3633" x2="3475.6653" y2="3953.0413" gradientTransform="matrix(1 0 0 1 -2216.1589 -36.183)">
			<stop  offset="0.54" style="stop-color:#0A985C"/>
			<stop  offset="0.54" style="stop-color:#F6C25B"/>
		</linearGradient>
		<path fill="url(#SVGID_1_)" d="M1261.928,3907.385c-1.179-1.983-4.039-7.077-6.177-10.872l-2.412-4.248
			c0.555,1.118,0.515,2.779-0.122,3.819l-15.911,25.963c-0.68,1.109-0.172,2.02,1.132,2.02h14.207c1.303,0,2.93-0.907,3.615-2.014
			l6.427-10.378C1262.55,3911.863,1263.446,3909.935,1261.928,3907.385z"/>
		<g>
			<path fill="none" d="M1249.422,3902.275l-12.116,19.773c-0.68,1.109-0.171,2.02,1.132,2.02h14.208
				c1.303,0,2.929-0.907,3.615-2.014l6.419-10.366L1249.422,3902.275L1249.422,3902.275z"/>
			<path fill="none" d="M1267.036,3883.487l-10.776-17.406c-0.683-1.108-2.311-2.013-3.613-2.013h-14.209
				c-1.304,0-1.812,0.909-1.132,2.02l13.797,22.513l7.757-10.921L1267.036,3883.487z"/>
			<path opacity="0.09" fill="#010101" enable-background="new    " d="M1272.339,3896.083c0.688-1.108,0.688-2.922,0.002-4.03
				l-5.304-8.567l-8.177-5.808l-7.757,10.921l2.114,3.448c0.681,1.11,0.681,2.928,0,4.038l-3.795,6.19l13.257,9.413
				L1272.339,3896.083z"/>
		</g>
		
			<linearGradient id="SVGID_2_" gradientUnits="userSpaceOnUse" x1="3464.6455" y1="3925.1726" x2="3480.5293" y2="3915.2471" gradientTransform="matrix(1 0 0 1 -2216.1589 -36.183)">
			<stop  offset="0.57" style="stop-color:#5586C5"/>
			<stop  offset="0.57" style="stop-color:#D9423E"/>
		</linearGradient>
		<path fill="url(#SVGID_2_)" d="M1272.336,3892.058l-16.076-25.973c-0.685-1.108-2.313-2.014-3.615-2.014h-14.212
			c-1.302,0-1.81,0.908-1.13,2.02l15.911,25.961l2.536,4.462c2.138,3.794,4.998,8.888,6.177,10.872
			c1.775,2.985,0.247,5.115,0.935,4.006l9.474-15.304C1273.022,3894.979,1273.022,3893.168,1272.336,3892.058L1272.336,3892.058z
			 M1253.233,3892.082l0.057,0.094l0.004,0.007L1253.233,3892.082z M1254.367,3894.061l0.168,0.296L1254.367,3894.061z
			 M1254.353,3894.025l0.271,0.479L1254.353,3894.025z"/>
		<g enable-background="new    ">
			<path fill="#4E4E4E" d="M1306.167,3890.121h14.065v17.564c-3.819,1.308-8.017,1.961-12.594,1.961
				c-5.023,0-8.905-1.456-11.646-4.368s-4.112-7.066-4.112-12.46c0-5.261,1.5-9.354,4.502-12.282
				c3.001-2.927,7.207-4.391,12.616-4.391c2.051,0,3.986,0.193,5.807,0.58s3.407,0.877,4.759,1.471l-2.786,6.91
				c-2.348-1.159-4.926-1.739-7.734-1.739c-2.571,0-4.559,0.836-5.963,2.508c-1.404,1.671-2.106,4.061-2.106,7.166
				c0,3.047,0.635,5.368,1.906,6.966s3.102,2.396,5.494,2.396c1.308,0,2.511-0.126,3.611-0.379v-5.104h-5.817v-6.799H1306.167z
				 M1351.843,3892.217c0,5.439-1.498,9.629-4.492,12.572s-7.203,4.413-12.627,4.413h-10.543v-32.588h11.278
				c5.23,0,9.27,1.337,12.115,4.012S1351.843,3887.164,1351.843,3892.217L1351.843,3892.217z M1342.703,3892.529
				c0-2.987-0.59-5.201-1.771-6.642s-2.976-2.162-5.383-2.162h-2.563v18.255h1.961c2.675,0,4.637-0.776,5.885-2.329
				S1342.703,3895.724,1342.703,3892.529L1342.703,3892.529z M1368.074,3890.121h14.064v17.564
				c-3.819,1.308-8.018,1.961-12.594,1.961c-5.022,0-8.904-1.456-11.646-4.368c-2.741-2.912-4.112-7.066-4.112-12.46
				c0-5.261,1.501-9.354,4.503-12.282c3.001-2.927,7.207-4.391,12.615-4.391c2.051,0,3.986,0.193,5.807,0.58
				s3.406,0.877,4.759,1.471l-2.786,6.91c-2.348-1.159-4.926-1.739-7.734-1.739c-2.571,0-4.559,0.836-5.963,2.508
				c-1.403,1.671-2.105,4.061-2.105,7.166c0,3.047,0.635,5.368,1.905,6.966s3.102,2.396,5.494,2.396
				c1.308,0,2.511-0.126,3.611-0.379v-5.104h-5.817L1368.074,3890.121L1368.074,3890.121z"/>
		</g>
		<g enable-background="new    ">
			<path fill="#4E4E4E" d="M1404.968,3909.201v-32.588h5.327v28.019h13.798v4.569L1404.968,3909.201L1404.968,3909.201z
				 M1432.077,3909.201l-9.361-24.652h5.528l5.015,14.332c0.861,2.407,1.382,4.354,1.561,5.84h0.178
				c0.134-1.069,0.654-3.017,1.561-5.84l5.016-14.332h5.572l-9.406,24.652H1432.077L1432.077,3909.201z M1447.883,3878.018
				c0-0.936,0.256-1.657,0.769-2.162c0.513-0.505,1.245-0.758,2.196-0.758c0.921,0,1.638,0.253,2.15,0.758
				c0.513,0.505,0.77,1.226,0.77,2.162c0,0.892-0.257,1.594-0.77,2.106s-1.229,0.769-2.15,0.769c-0.951,0-1.684-0.256-2.196-0.769
				S1447.883,3878.909,1447.883,3878.018z M1453.433,3909.201h-5.237v-24.652h5.237V3909.201z M1463.846,3909.201l-9.361-24.652
				h5.528l5.015,14.332c0.861,2.407,1.382,4.354,1.561,5.84h0.178c0.134-1.069,0.654-3.017,1.561-5.84l5.016-14.332h5.572
				l-9.406,24.652H1463.846L1463.846,3909.201z"/>
		</g>
	</g>
</g>
<g>
	<g>
		<g>
			<defs>
				<path id="SVGID_23_" d="M241.44,28.106L230.109,9.233c-0.626-1.042-2.135-1.898-3.354-1.898h-0.038L1.346,7.339
					c-1.132,0-1.586,0.747-1.145,1.689L11.61,28.101c0.626,1.047,0.626,2.753,0,3.795L0.274,50.767
					c-0.626,1.042-0.142,1.897,1.072,1.897l225.41-0.003c1.218,0,2.727-0.85,3.354-1.896L241.44,31.9
					C242.067,30.854,242.067,29.148,241.44,28.106z"/>
			</defs>
			<use xlink:href="#SVGID_23_"  overflow="visible" fill="#F6F5F5"/>
			<clipPath id="SVGID_3_">
				<use xlink:href="#SVGID_23_"  overflow="visible"/>
			</clipPath>
			<g clip-path="url(#SVGID_3_)">
				<path fill-rule="evenodd" clip-rule="evenodd" fill="#EBEBEC" d="M225.154,91.589c-0.71,0.661-1.018,2.482-0.237,3.303
					c1.79,0.067,2.431-1.031,2.359-2.825C226.601,91.865,225.815,91.781,225.154,91.589z M248.955,88.531h-0.469
					c0.132,2.322-1.706,2.702-1.183,5.417h-2.119c-0.689,0.732-1.259,1.658-2.115,2.355c-1.546,1.263-4.445,1.711-3.542,4.481
					c2.418,1.102,3.145-1.699,4.004-2.589c0.114-0.113,0.596-0.16,0.714-0.236c0.383-0.259,0.526-0.565,0.699-0.947
					c0.033-0.067,0.415-0.163,0.477-0.234c0.639-0.771,1.168-1.454,1.65-2.126c0.899-0.097,1.701-0.688,2.121-1.176
					c0.246-0.276,0.271-0.691,0.47-0.937c0.753-0.918,1.216-0.877,1.182-1.658C250.785,89.79,249.498,89.619,248.955,88.531z
					 M155.391,63.309c-0.722,0.508-0.859,1.282-1.65,1.883c-0.419,0.322-1.093,0.236-1.416,0.476
					c-1.127,0.804-0.673,1.764-0.944,3.296c-0.114,0.634-0.638,1.129-0.699,1.88c-0.114,1.128-0.021,1.745,0.699,2.602
					c2.569,0.524,3.151-2.323,3.772-4.006c0.693-1.889,1.892-4.434,0.945-6.131H155.391z M232.931,72.027
					c-0.22-0.393-0.244-1.089-0.471-1.412c-0.516-0.728-1.249-1.037-1.652-1.891c-0.726-1.505-0.652-3.21-1.411-4
					c-0.542-0.562-0.518-1.572-1.414-1.652c-1.361,0.765-0.496,3.756-1.888,4.48c-1.467-0.264-2.524-0.933-3.06-2.124
					c0.205-0.575,0.549-1.019,0.462-1.88c-1.341-0.674-2.743-1.169-4.004-0.708c-1.229,0.441-1.295,2.133-2.596,2.352
					c-0.514-0.187-0.91-0.502-1.643-0.469c-1.184,0.784-1.785,2.143-3.303,2.589c-0.754,3.641-5.472,1.938-7.067,4.479
					c-0.583,0.923-0.729,2.648-0.709,3.772c0.032,1.591,0.812,3.183,0.709,4.954c-0.052,0.81-0.742,1.611-0.47,2.587
					c0.336,0.138,0.573,0.366,0.707,0.709c1.194,0.412,2.225-0.728,3.527-0.948c0.536-0.084,1.274,0.187,1.896,0
					c0.706-0.222,1.248-0.928,1.877-1.173c0.588-0.225,1.463-0.355,2.126-0.475c2.894-0.521,4.299,0,4.946,2.355
					c1.065,0.507,1.846,1.111,2.35,2.131c0.398,0.764,0.313,1.532,0.722,2.349c0.905,1.05,3.019,0.908,4.473,1.416
					c0.573-0.675,1.777-0.742,2.595-1.176c0.742-0.735,0.668-1.683,1.174-2.588c0.055-0.094,0.399-0.139,0.475-0.239
					c0.134-0.186,0.127-0.542,0.228-0.707c0.263-0.396,0.487-0.858,0.712-1.184c0.526-0.744,1.281-1.179,1.645-1.88
					c0.132-0.243,0.185-0.777,0.237-0.944c0.313-0.919,0.848-2.114,0.951-3.059c0.289-2.683-0.726-3.583-1.656-5.192
					C233.281,72.286,233.022,72.186,232.931,72.027z M227.743,55.526c-1.174-0.412-2.371-0.787-3.299-0.698
					c-0.617,0.047-1.176,0.582-1.879,0.462c-0.462-0.412-0.68-1.06-1.181-1.408c-0.631,0-1.356-0.094-1.651,0.239
					c0.225,0.996,0.48,1.787,1.176,2.355c0.268,0.216,0.818,0.086,1.174,0.227c0.376,0.159,0.64,0.564,0.951,0.713
					c0.431,0.213,0.825,0.023,1.174,0.233c0.769,0.462,0.668,1.468,0.946,2.366c1.149,0.269,1.823,1.074,3.058,0.933
					c0.859-0.089,1.185-1.05,2.124-0.933c1.246,0.398,1.345,1.944,3.308,1.642c0.369-1.15-1.578-1.828-1.42-3.534
					C230.85,57.115,229.653,56.214,227.743,55.526z M210.773,53.882c-0.869,0.66-0.917,2.565-0.231,3.534h2.351
					c0.245-0.742-0.147-1.973,0-3.296C212.512,53.719,211.508,53.927,210.773,53.882z M207.947,48.223
					c-1.616,1.608-3.152,3.296-5.416,4.24c-0.796,2.887,2.402,4.725,5.176,4.013c0.511-1.225,1.646-2.594,1.89-3.785
					c0.12-0.591-0.283-1.199-0.241-1.874c0.049-0.761,0.697-1.102,0.472-1.891C209.289,48.611,209.048,47.984,207.947,48.223z
					 M206.057,60.245c0.085-0.994-1.011-1.562-1.645-1.645c-0.667-0.099-1.263,0.356-1.882,0.241
					c-0.336-0.084-0.926-0.372-1.184-0.486c-0.428-0.17-1.068-0.217-1.174-0.705c0.006-0.775,0.397-1.173,0.23-2.124
					c-0.834-0.779-1.281-0.977-1.647-1.88c-0.482-1.17-0.255-3.634-0.704-4.473c-0.408-0.764-1.625-1.043-2.127-1.657
					c-0.267-0.319-0.324-0.951-0.469-1.176c-0.287-0.457-0.436-0.436-0.709-0.938c-0.06-0.192-0.196-0.286-0.47-0.236
					c-1.09,2.303,2.272,3.117,1.178,5.424c-1.222-0.272-1.461-1.535-3.065-1.417c-0.504,1.224,1.015,1.931,1.65,2.822
					c0.072,0.106-0.06,0.356,0,0.469c0.026,0.08,0.41,0.152,0.467,0.228c0.073,0.113-0.052,0.367,0,0.483
					c0.042,0.083,0.418,0.14,0.47,0.24c0.358,0.615,0.667,1.838,0.946,2.112c0.79,0.829,1.823,1.865,2.595,2.361
					c0.302,0.205,0.838,0.232,1.183,0.468c0.627,0.464,0.825,1.183,1.411,1.414c0.266,0.109,1.026-0.118,1.645,0
					c0.433,0.09,0.822,0.436,1.178,0.476C204.701,60.331,205.299,60.177,206.057,60.245z M211.717,38.323
					c-2.529-0.084-1.201,3.884-0.472,4.719c0.679,0.019,1.544-0.134,1.893,0.223c-0.913,0.807-0.124,2.004,0,2.837
					c0.091,0.664-0.087,1.272,0,1.413c0.264,0.517,1.508,1.282,1.878,1.182c1.439-0.365,1.034-2.763-0.239-3.531
					c0.039-0.584,0.039-1.147-0.232-1.42c-0.76-0.816-1.921-1.312-2.352-2.595C211.882,40.26,212.55,39.118,211.717,38.323z
					 M62.518,38.795c0.926,0.674,2.511,0.456,3.064-0.472C65.308,37.18,62.141,36.759,62.518,38.795z M61.105,37.381
					c-0.231-1.263-1.532-1.452-2.826-1.641v0.168c-0.32-0.133-0.629-0.274-0.938-0.376v-0.27c0.032-0.389-1.454-0.389-1.414,0
					c0.488,0.132,0.666,0.588,1.414,0.479v-0.196l0.938,0.371V36.2C58.735,37.006,59.823,38.178,61.105,37.381z M210.061,32.665
					c-0.338,0.342-0.338,1.552,0,1.887c1.005-0.031,1.043-1.158,0.713-1.887H210.061z M127.818,23.238
					c0.799,0.103,1.332-0.073,1.169-0.941C128.301,22.32,127.659,22.381,127.818,23.238z M124.034,19.702
					c-0.351,0.359-0.413,1.616,0.472,1.416C124.872,20.758,124.93,19.499,124.034,19.702z M220.206,19.702
					c-0.43,0.53-0.691,1.085-1.188,1.416c-1.223,0.508-2.729,1.305-3.06,2.596c-0.237,0.929-0.576,2.02,0.938,2.359
					c0.574-0.452,0.43-1.618,1.183-1.886c1.004-0.227,1.798-0.775,2.595-1.181c0.918-0.467,1.771-0.843,2.592-1.415
					c-0.147-2.685,0.706-6.357-1.883-6.602c-0.336,1.13,0.281,2.306,0,3.302C221.205,18.892,220.546,19.274,220.206,19.702z
					 M221.144,14.28c1.421-0.539,3.012-0.911,3.3-2.589c-1.02-0.47-1.92-1.063-3.3-1.176
					C221.209,11.868,220.108,13.375,221.144,14.28z M220.432,7.681c-0.033,0.515,0.196,0.746,0.711,0.714
					C221.183,7.881,220.95,7.64,220.432,7.681z M108.729-7.871c-1.794-0.441-4.163-0.013-5.671,0
					c-0.271,1.353,0.101,3.101,1.414,3.537C106.625-3.614,110.113-5.874,108.729-7.871z M151.38-16.122
					c-0.271-1.504-1.308-1.873-1.414-3.295c-0.041-0.508,0.325-1.017,0.469-1.648c0.16-0.715,0.026-1.39,0.246-1.892
					c0.066-0.17,0.528-0.437,0.7-0.708c0.232-0.385,0.276-0.924,0.463-1.175c0.87-1.124,2.582-1.705,2.595-3.058
					c-0.197-0.507-0.574-0.839-1.412-0.72c-0.378,0.591-0.701,0.924-1.413,1.419c-1.22,0.857-1.791,0.821-2.591,2.119
					c-0.792,1.283-0.702,2.271-0.944,4.251c-0.152,1.256-0.574,2.695-0.468,3.056C147.946-16.643,149.869-15.618,151.38-16.122z
					 M90.098,56.938c-0.651-0.481-1.466-1.247-1.884-1.413c-1.068-0.408-2.45-0.136-3.541-0.464
					c-0.489-0.157-0.899-0.721-1.406-0.94c-0.628-0.28-1.228-0.094-1.653-0.239c-1.493-0.532-1.361-1.452-1.887-2.595
					c-0.253-0.549-0.609-1.311-0.948-1.652c-0.083-0.093-1.009-0.752-1.413-0.938c-0.815-0.372-1.378-0.132-2.356-0.238
					c-1.013-0.102-2.163-1.686-2.821-2.12c-0.581-0.385-1.078-1.279-1.413-1.416c-1.145-0.438-2.822,0.16-3.774,0
					c-1.056-0.173-1.393-0.823-2.125-0.942c-1.851-0.311-3.112,0.072-3.774,0.467c-0.672,0.42-0.973,1.272-2.114,1.655
					c-0.397,0.131-0.911-0.149-1.184,0.236l-0.183,0.18c-0.113-0.028-0.23-0.038-0.35-0.007l-0.173-0.173
					c-1.689-0.247-2.543-0.715-2.827-2.12c-0.18-0.9,0.767-1.918,0.239-2.827c-0.483-1.018-2.663-0.337-3.305-1.182
					c-0.559-1.253,1.07-2.178,0.715-4.008c-2.444-0.981-2.444,1.22-3.541,1.887c-2.621,1.598-4.63-0.95-4.242-4
					c0.067-0.575,0.827-3.393,0.938-3.54c0.396-0.525,2.442-1.389,2.836-1.419c0.632-0.024,1.374,0.568,2.112,0.474
					c0.629-0.229,1.083-0.817,1.896-0.943c1.267-0.193,2.747,0.428,3.528,0.943c0.257,1.39,0.257,3.048,1.891,3.061
					c1.307-1.555-0.598-3.046,0-4.947c0.122-0.405,0.565-0.627,0.937-0.944c0.777-0.657,1.381-1.113,2.127-1.648
					c0.461-0.336,1.011-0.482,1.168-0.711c0.536-0.749,0.345-1.824,0.712-2.592c0.225-0.469,0.801-0.91,1.178-1.418
					c0.977-1.269,1.419-1.804,3.058-2.114c0.435-1.349,1.039-2.715,2.596-2.828c0.787-0.06,1.189,0.397,2.128,0.476
					c1.076-0.735,2.819-0.799,3.288-2.121c-1.202-0.222-1.754-0.24-2.343-1.182c-0.191-0.299,0.124-1.098,0-1.651
					c-0.165-0.696-1.283-0.758-0.477-1.177c1.203,0.265,1.831,0.516,2.82,0.229c0.827-0.222,1.996-0.897,2.604-0.472
					c-0.178,1.01-1.103,1.267-0.946,2.6c1.103,0.537,2.272,1.026,4.005,0.946c0.799-1.751-0.936-2.563-1.417-3.785
					c0.675-1.499,0.538-2.749,0-3.526c-0.163-0.239-0.336-0.787-0.467-0.948c-0.562-0.64-1.46-0.797-1.881-1.639
					c-0.437-0.877-0.304-1.859-0.478-2.6c-0.172-0.773-0.29-1.445-0.708-2.359c-1.669-0.263-1.242,1.591-3.056,1.183
					c-0.668-0.719-0.352-1.506-0.246-2.596c-1.119-1.462-2.561-3.64-5.179-2.831c-0.639,0.848-0.185,1.834-0.469,2.831
					c-0.21,0.745-0.872,1.305-0.942,2.127c-0.082,0.81,0.495,1.811,0.228,2.589c-0.33,1.003-1.98,1.206-2.588,2.352
					c-0.708,1.329,0.466,2.093-0.945,3.063c-1.302-0.255-0.315-2.821-0.944-3.76c-0.23-0.44-0.779-0.269-1.176-0.476
					c-1.151-0.606-2.086-1.957-3.064-2.598c-0.161-0.107-0.313-0.141-0.471-0.241c-0.918-0.534-1.096-0.903-1.413-1.877
					c-0.823-2.515,1.093-3.679,2.589-4.951c1.168-0.987,2.37-2.143,4.003-2.114c0.634,0.224,0.588,1.141,1.182,1.413
					c1.136-0.346,1.869-0.45,2.826-0.482c0.208-1.529-1.405-2.265-0.938-3.29c1.442-0.693,2.392-1.175,2.824-2.598
					c0.334-1.07,0.79-2.137,1.419-2.828c1.612-0.283,2.034,0.633,2.359,1.649c-0.014,1.018-1.249,0.797-0.952,2.133
					c1.044,0.302,1.706-1.115,2.127,0c-0.158,1.644-1.474,2.14-2.35,3.058c-0.933,0.02-2.075-0.183-1.888,0.945
					c-0.1,1.266,1.975,0.376,2.596,0.931c0.505,0.534,0.545,1.757,1.167,2.362c0.444,0.424,1.612,0.967,2.127,0.937
					c0.436-0.012,1.686-0.751,1.882-0.937c1.063-0.957,0.126-2.429-0.239-3.775c0.889-0.023,0.722,1.018,1.893,0.712
					c1.029-0.642,1.623-0.99,1.65-1.888c0.012-0.607-0.738-1.116-1.178-1.648c-0.539-0.641-1.112-1.045-1.18-1.651
					c0.092-0.93,0.522-1.398,0.467-2.121c-0.126-1.797-2.298-2.713-3.064-4.485c-0.324-0.762-0.508-1.485-0.463-2.582
					c-0.713-1.044-2.284-0.662-3.547-0.944c-0.476-0.113-0.84-0.376-1.176-0.476c-2.946-0.944-4.717,2.369-4.473,5.424
					c0.431,0.684,1.251,1.002,1.176,2.12c-0.045,0.687-0.685,1.696-1.643,1.65c-0.324-0.963-1.462-1.837-1.658-3.057
					c-0.047-0.351,0.212-1.019,0.238-1.421c0.066-1.012-0.151-2.108,0.238-3.066c1.276-0.847,3.762-0.49,3.302-3.067
					c-0.942-0.823-2.298-0.746-3.302,0c-1.087-1.72-2.3-0.869-3.303,0c-1.148,1.008-1.334,1.197-0.937,2.36
					c0.071,0.217,0.071,0.672,0.237,0.948c0.304,0.545,1.123,0.663,1.175,1.411c0.032,0.466-0.139,0.668-0.237,0.945
					c-0.454,1.333-1.116,1.333-2.358,1.889c-0.449,0.812-0.132,1.719-1.176,2.113c-1.15,0.428-2.88-0.346-2.828-1.654
					c1.752,0.036,3.105-0.909,3.298-2.117c0.073-0.432-0.327-0.565-0.471-0.937c-0.443-1.187-0.078-2.81,0.231-3.543
					c0.384-0.863,1.501-1.319,1.416-2.592c-1.489-0.923-2.34,1.063-3.767,0.938c-1.613-0.13-2.146-1.542-2.351-3.772
					c-1.516-1.199-3.17-1.827-4.255-0.697c-1.162,1.209-3.809,3.196-2.821,4.947c0.727,0.701,2.319-0.24,2.821,0.236
					c-0.378,0.895,0.167,1.866,0,2.592c-0.054,0.264-0.562,0.65-0.699,0.945c-0.227,0.463,0.052,1.337-0.713,1.183
					c-1.106-0.074-1.389-0.974-1.887-1.651c-1.65-0.236-2.705-1.064-3.533-2.127c-2.307-0.019-4.346,0.217-6.359,0.476
					c-0.497-0.456-0.899-0.99-1.184-1.652c-0.845-0.086-1.05-0.995-1.651-1.415c-0.483-0.335-1.426-0.495-2.121-0.936
					c-0.097-0.073-0.126-0.389-0.238-0.481c-0.19-0.148-0.523-0.1-0.707-0.234c-0.113-0.071-0.113-0.382-0.229-0.468
					c-0.219-0.163-0.521-0.066-0.707-0.236c-0.482-0.438-0.596-1.047-0.94-1.415c-0.542-0.562-0.859-0.737-1.65-0.937
					c-1.375-0.356-2.532,0.209-3.304,0.468c-0.449,0.152-1.059,0.072-1.415,0.233c-0.905,0.4-1.578,1.275-2.594,1.651
					c-0.827,0.302-1.779-0.167-2.355,0.704c-0.243,1.738,0.727,3.509,0,4.948c-0.779,0.093-1.153-0.917-2.126-0.937
					c-0.205-0.006-0.825,0.322-1.181,0.467c-1.45,0.61-1.369,1.525-1.171,3.068c0.422,0.918,2.378,0.292,2.588,1.413
					c-0.413,1.613-2.235,0.711-3.293,1.182c-0.174,0.073-0.569,0.607-0.947,0.935c-0.421,0.373-1.023,0.689-1.181,0.945
					c-0.408,0.695-0.778,2.247-0.701,2.828c0.133,1.07,1.647,1.349,1.409,3.067c0.601,0.429,1.617,0.429,1.648,1.408
					c-0.744,2.158-3.505,2.31-4.707,4.008c2.617,0.026,3.699-1.472,5.655-2.114c0.938-0.24,0.705,0.694,1.652,0.462
					c1.394-0.723,0.721-3.151,2.112-3.534c1.301,1.002,3.671,0.224,4.715-0.478c0.476,0.298,0.946,0.761,1.655,1.191
					c0.545,0.318,1.41,0.501,1.886,0.945c0.265,0.244,0.742,1.433,0.944,1.648c0.918,0.948,0.629,2.018,0.931,3.531
					c0.068,0.292,0.127,0.527,0.24,0.942c0.107,0.376,0.17,0.992,0.236,1.178c0.255,0.601,0.978,1.077,1.177,1.643
					c0.119,0.34-0.092,0.991,0,1.423c0.088,0.349,0.425,0.771,0.478,0.937c0.413,1.398-0.013,2.172-0.238,3.303
					c0.376,1.016,1.267,1.552,1.411,2.599c0.062,0.375-0.182,0.75-0.229,1.166c-0.16,1.408-0.214,1.559-0.468,2.366
					c-0.405,1.266-0.966,2.107-1.178,3.055c-0.323,1.41-0.302,3.891,0,4.955c0.233,0.867,0.504,2.247,0.703,2.836
					c0.48,1.385,1.604,1.4,2.357,2.587c0.342,0.544,0.334,1.486,0.707,2.36c0.463,1.053,1.609,1.711,1.175,3.3
					c1.044,0.763,1.209,2.401,2.597,2.831c0.224-1.097-0.913-2.06-0.247-2.831c0.885,0.242,0.86,1.18,1.183,1.64
					c0.147,0.204,0.571,0.279,0.714,0.482c0.159,0.207,0.076,0.478,0.232,0.708c0.463,0.662,1.244,1.029,1.414,1.88
					c0.092,0.439-0.238,1.366,0,1.886c0.597,1.314,4.578,3.325,6.129,3.541c0.706,0.093,1.694-0.214,2.352,0
					c0.621,0.186,1.13,1.175,2.134,1.645c0.898,0.431,2.245,0.329,2.821,0.697c1.077,0.716,1.254,2.051,1.889,2.599
					c0.363,0.328,0.919,0.455,1.413,0.711c1.307,0.674,1.929,1.263,3.068,0h0.229c0.51,0.986,1.354,1.711,1.183,3.299
					c-0.099,0.812-0.689,1.192-1.183,1.892c-0.363,0.505-1.167,1.186-1.414,1.88c-0.363,1.043,0.14,1.385,0,2.355
					c-0.1,0.675-0.568,1.176-0.471,1.648c0.128,0.639,1.323,1.702,1.885,2.596c0.636,1.017,1.26,2.396,1.651,3.064
					c0.351,0.607,0.689,1.594,0.944,1.883c1.362,1.558,3.54,1.606,4.242,3.532c0.946,2.611-0.099,7.639,0,10.142
					c0.041,0.87,0.296,1.757,0.236,2.589c-0.086,1.141-0.651,2.166-0.712,3.302c-0.013,0.429,0.187,1.003,0.244,1.652
					c0.059,0.754-0.105,1.639,0,2.352c0.08,0.64,0.424,1.022,0.468,1.658c0.126,2.173-0.422,4.486,0,6.359
					c0.182,0.809,0.825,1.636,1.176,2.361c0.417,0.827,0.743,1.624,1.183,2.353c1.619,0.554,3.264,2.872,5.417,1.411
					c0.184-0.81-0.408-1.263-0.707-1.652c-0.431-0.563-0.865-0.736-1.181-1.411c-0.207-0.443-0.524-1.07-0.462-1.88
					c0.057-1.107,1.253-1.891,1.176-3.067c-0.068-0.891-1.024-1.303-0.952-2.12c0.774-1.196,1.513-2.42,1.42-4.479
					c1.144-0.112,0.985-1.533,1.653-2.12c0.965-0.363,2.159-0.502,2.826-1.177c0.279-0.662,0.266-1.632,0.24-2.599
					c0.561-0.292,1.425-0.302,1.881-0.705c0.866-0.684,0.866-1.757,1.415-2.589c0.289-0.447,0.898-0.768,1.179-1.186
					c0.332-0.478,0.775-1.18,0.948-1.642c0.456-1.281-0.145-1.876,0.462-2.831c0.223-0.356,0.725-0.379,0.95-0.471
					c0.07-0.032,0.144-0.418,0.232-0.475c0.204-0.126,0.535-0.139,0.706-0.233c0.277-0.153,0.429-0.356,0.707-0.476
					c0.423-0.166,1.274-0.019,1.882-0.468c1.263-0.92,1.942-3.541,2.128-5.655c0.039-0.462-0.173-1.373,0-1.895
					c0.144-0.438,0.958-1.282,1.412-1.877c0.573-0.781,1.23-1.195,1.408-2.127C92.12,57.886,91.215,57.779,90.098,56.938z
					 M125.921-24.84c1.547-0.103,0.884-2.412,2.122-2.836c0.308,0.636,0.508,1.381,1.65,1.185c0.887-1.586-1.465-1.779-1.413-3.303
					c1.28-0.369,2.629-0.662,2.595-2.355c-0.64-0.859-2.252-0.737-3.771-0.707c-0.639,0.459-1.077,1.127-1.882,1.415
					c-0.571,0.309-1.633,0.094-2.127,0.469c-0.761,1.844,0.838,2.98,1.645,4.004C124.773-25.887,125.315-25.328,125.921-24.84z
					 M198.52-33.33c0.139-0.843-0.702-0.72-1.412-0.711C196.784-32.977,198.057-32.891,198.52-33.33z M158.216,33.838
					c-1.187-0.003-2.516-2.509-3.301-3.29c-0.271-0.348-0.271-0.598,0-0.944h0.701c0.79,1.644,2.68,2.19,4.485,2.821
					C159.468,33.279,158.984,33.854,158.216,33.838z M151.843,15.233c0.87-0.79,1.445-1.864,3.309-1.662
					c0.65,1.108-0.805,1.147-0.714,2.367c-0.024,0.913,1.011,1.368,1.415,2.12c0.272,0.488,0.272,1.169,0.475,1.643
					c0.43,1.04,1.521,1.992,0.938,3.061c-1.116,0.703-2.384-0.2-3.06-0.701C154.915,18.291,152.127,18.011,151.843,15.233z
					 M150.435,41.86c-0.565-0.007-0.99-0.141-1.413-0.47c-0.792-0.614-0.792-1.455-1.413-2.358
					c-0.259-0.362-0.799-0.655-0.938-0.945c-0.245-0.488-0.227-1.31-0.482-1.888c-0.286-0.644-0.827-1.039-1.178-1.648
					c-0.1-0.176,0.093-0.522,0-0.714c-0.158-0.318-1.216-0.964-0.936-2.114h0.707c0.482,0.562,0.673,1.197,1.175,1.892
					c0.393,0.547,1.124,1.004,1.413,1.645c0.16,0.357,0.033,0.827,0.239,1.175C148.633,38.15,150.861,39.596,150.435,41.86z
					 M139.356,28.186c-1.056-0.047-1.875-0.432-2.826-0.701c-0.989-0.289-2.173-0.796-2.595-0.712
					c-1.046,0.203-1.051,1.179-1.882,1.889c-0.905-0.107-1.721-0.341-2.361-0.945c-0.751-0.728-2.524-0.758-3.771-1.645
					c0.139-1.315-0.108-2.253-0.699-2.834c-1.977,0.109-3.535-0.04-5.191,0.236c-1.746,0.299-3.398,1.692-5.188,0.94
					c0.812-1.003,2.03-0.681,2.826-1.651c0.367-0.425,0.215-1.336,0.477-1.877c0.319-0.633,1.004-0.912,1.414-1.416
					c0.502-0.618,0.568-1.313,1.182-1.648c0.886-0.453,2.631-0.04,3.066-0.948c1.751,0.921,2.684,2.66,4.71,3.306
					c0.425,0.436,0.634,1.087,1.175,1.41c2.603-2.091-1.829-3.104-2.357-4.945c0.039-0.279,0.43-0.206,0.707-0.247
					c0.726,1.163,2.372,1.41,3.302,2.36c-0.005,0.553,0.402,0.701,0.232,1.421c0.826,0.369,1.382,3.247,2.595,3.293
					c1.991,0.073,0.933-1.742,1.176-3.069c0.621-0.022,0.827-0.353,1.182,0c0.219,0.238,0.086,0.923,0.233,1.186
					c0.179,0.296,0.295,0.591,0.482,0.948c0.356,0.707,0.658,0.781,1.176,1.411c2.429-0.375,3.68,0.809,5.655,0.237
					c0.397,1.368-0.253,2.803-0.946,3.766C141.736,27.663,140.719,28.26,139.356,28.186z M128.987,4.145
					c-0.078-1.584,0.49-2.253,0.945-3.762c0.032-1.052-0.96-1.428-0.945-2.362c0.02-1.346,1.098-1.908,2.12-2.595
					c0.196-0.977,0.178-2.176,0.946-2.594c0.384-0.061,0.408,0.225,0.704,0.239c0.266,1.761-1.209,1.773-1.65,2.828
					c-0.058,2.27,0.541,3.864,2.125,4.485c-0.123,2.13-2.04,2.978-1.179,5.417c-0.696,0.504-1.325-0.087-2.122,0
					c-1.163,0.13-2.396,1.396-3.303,0.236C126.9,4.886,128.427,4.999,128.987,4.145z M140.302,14.748
					c1.209-0.186,0.958,1.091,1.875,1.191c1.086,0.046,1.086-0.97,1.421-1.658h0.713c-0.132,2.571,2.656,2.218,3.297,4.01
					c-0.817,1.978-2.598,0.488-4.01,0.235c-1.604-0.29-2.82,0.535-4.71,0.709C137.522,17.954,138.788,15.264,140.302,14.748z
					 M140.065-8.345c0.78,0.245,1.93,0.119,2.594,0.473c0.016,1.271-1.48,1.037-2.594,1.178
					C139.727-7.007,139.727-8.019,140.065-8.345z M234.817-32.855c-1.225-0.704-2.258,0.209-3.071,0.232
					c-0.718,0.02-1.552-0.349-2.35-0.468c-0.542-0.079-1.057,0.059-1.654,0c-1.185-0.134-2.402-0.595-3.534-0.712
					c-1.851-0.172-2.659,0.606-4.002,0.712c-0.284,0.351-0.302,0.967-0.714,1.183c-0.918-0.18-1.459,0.661-2.119,0.937
					c-0.477,0.206-1.084,0.271-1.647,0.477c-0.527,0.173-0.946,0.645-1.658,0.458c-0.983-0.481-1.576-1.76-2.824-1.872
					c-1.178-0.107-2.184,1.13-3.298,1.175c-0.382,0.013-0.603-0.132-0.953-0.238c-0.323-0.109-0.963-0.137-1.167-0.236
					c-0.714-0.312-0.899-1.051-1.89-1.183c-0.715-0.08-1.36,0.376-2.118,0.483c-1.107,0.145-2.066-0.297-3.063,0.228
					c-0.606,0.728,0.067,1.682,0,2.592c-0.859,0.401-1.763,0.761-2.831,0.95c-0.737,0.272-0.668,1.366-1.647,1.405
					c-1.927-1.285-2.085-4.352-6.136-3.524c-0.432,0.661-0.432,1.754-1.408,1.877c-1.062,0.057-1.511-0.655-2.599-0.707
					c-1.257-0.06-2.825,1.215-4.005,0c0.317-3.602-2.285-6.018-5.417-4.716c-1.154-0.339-1.692-1.289-3.065-1.408
					c-0.026,0.366-0.601,0.182-0.469,0.707c-0.838,0.771,0.216,1.927,0,2.596c-0.358,1.066-1.248,1.189-2.589,1.414
					c-1.153,1.862-4.061,2.582-3.071,5.886c-0.475,0.459-1.553,0.336-1.652,1.179c-0.542,0.247-0.48,1.087-0.46,1.879
					c-1.066,0.444-1.628,1.382-2.836,1.658c-0.918-0.649-1.273-1.866-2.821-1.888c-0.224,0.964-0.771,3.309-0.713,4.24
					c0.06,0.971,1.139,1.818,0.474,2.596c-1.438-0.277-2.243-0.518-3.769-0.238c-0.14,0.415,0.28,1.382-0.238,1.419
					c-1.09,0.936-2.586,0.325-3.768,0.714c-0.093,0.016-0.362,0.402-0.481,0.463c-0.304,0.159-0.675,0.038-0.933,0.234
					c-0.744,0.549-0.844,1.765-1.895,1.885c-0.457-0.562-0.31-1.731-1.414-1.645c-0.965,0.462,0.628,2.642-0.936,2.821
					c-1.026-0.074-0.893-1.297-1.416-1.892c-1.836-0.977-3.711-1.94-6.129-2.349c-0.652-0.74-1.135-1.462-1.881-1.652
					c-2.211-0.547-3.845,0.919-4.717,1.419c-0.669,0.38-1.023,0.418-1.415,0.714c-0.482,0.35-0.886,0.658-1.181,0.938
					c-0.801,0.74-0.608,1.645-0.938,2.584c-0.139,0.396-0.705,0.844-0.946,1.413c-0.265,0.647-0.197,1.398-0.47,1.89
					c-0.044,0.076-0.402,0.156-0.476,0.233c-0.163,0.189-0.069,0.512-0.229,0.707c-1.214,1.516-2.574,1.731-3.535,3.068
					c0.075,1.886,0.199,3.724,1.171,4.714c1.525,0.345,1.598-0.772,2.828-0.704c0.33,0.456,0.229,1.342,0.482,1.88
					c-0.35-0.341-1.547-0.341-1.898,0c-0.534,1.002,0.138,1.805,0,3.067c-0.593,0.421-1.305,0.736-2.114,0.938
					c-0.625,0.634-0.944,1.579-1.888,1.884c-0.097-1.17-2.219-3.396-3.064-5.18c-0.238-0.523,0.041-1.204-0.232-1.648
					c-0.457-0.761-1.544-0.817-2.126-0.478c-0.66,0.447-0.436,1.757-0.469,2.833c-1.619,0.495-3.058,2.166-2.361,4.234
					c1.369,0.278,1.72-0.475,2.599-0.701c0.337-0.758,0.1-2.093,1.174-2.12c0.458,0.974-0.827,2.847,0,4.242
					c0.794,0.15,2.194-0.299,2.598,0.238c-0.451,0.806-1.589,0.938-2.359,1.414c0.046,1.561,2.279,1.934,1.883,3.539
					c-0.536,2.245-3.322,0.361-5.181,1.408c-0.588,0.476-0.131,1.323-0.237,2.124c-0.17,1.288-0.772,2.361-0.239,3.293
					c0.808,0.91,1.959,0.501,2.122,1.651c0.186,1.266-1.282,1.564-2.361,2.834c-0.495,0.588-0.552,2.37-0.698,2.589
					c-0.477,0.71-1.671,1.063-2.357,1.651c-0.814,0.688-1.343,1.629-1.884,2.599c-0.359,0.621-0.869,1.485-0.952,2.112
					c-0.132,0.998,0.336,2.569,0.237,3.774c-0.04,0.42-0.415,0.829-0.461,1.178c-0.43,2.546,1.08,2.974,2.112,4.25
					c0.384,0.475,0.431,0.745,0.709,1.173c0.548,0.835,0.913,1.12,1.649,1.648c0.701,0.501,0.985,0.818,1.643,1.189
					c1.6,0.863,1.916,0.004,3.773,0c0.659-0.01,1.369,0.303,1.89,0.223c0.509-0.067,1.052-0.516,1.649-0.708
					c2.346-0.756,2.751-0.322,4.244,1.184c1.062-0.04,2.1-0.054,2.355,0.707c0.595,1.131-0.537,2.372-0.242,3.772
					c0.263,1.176,1.565,1.81,2.126,2.827c0.302,0.549,0.755,1.519,0.952,2.352c0.143,0.704,0.349,2.114,0.224,2.831
					c-0.086,0.546-0.742,0.788-0.938,1.173c-0.131,0.26-0.184,0.777-0.238,0.951c-0.599,1.94,0.072,3.299,0.707,4.716
					c0.304,0.688,0.772,1.375,0.944,2.119c0.217,0.953,0.1,1.791,0.232,2.588c0.231,1.317,1.459,2.283,1.89,3.543
					c0.416,1.219-0.02,2.622,1.182,3.528c1.697-0.246,3.574-0.193,4.942-0.469c0.284-0.063,1.617-0.682,1.658-0.711
					c0.675-0.645,1.295-1.13,2.122-2.12c1.083-1.286,2.087-2.496,2.35-4.238c0.848-0.774,1.56-0.638,1.89-1.655
					c0.295-0.923-0.323-2.215,0-3.063c0.554-1.452,3.302-1.921,4.001-3.061c0.691-1.099,0.577-3.853,0.239-4.711
					c-0.277-0.697-0.634-1.435-0.701-2.13c-0.13-1.175,0.245-1.927,0.463-2.359c0.529-1.031,0.657-1.307,1.415-2.114
					c0.555-0.587,1.215-1.362,1.645-1.651c1.367-0.908,2.984-2.3,3.548-3.526c0.035-0.097,0.415-0.146,0.462-0.239
					c0.733-1.298,1.465-2.907,1.656-4.485c-1.459-1.545-5.066,1.618-5.897-0.708c0.423-0.738,1.593-0.792,2.594-1.174
					c1.059-0.412,2.471-0.939,3.303-1.415c0.234-0.14,0.293-0.362,0.462-0.468c0.92-0.578,1.813-0.675,2.598-1.183
					c0.123-0.08,0.329-0.366,0.47-0.475c0.718-0.582,1.135-1.024,1.651-1.883c0.435-0.719,0.805-1.303,0.715-1.885
					c-0.233-1.442-1.904-0.804-2.13-2.589c2.404,0.397,4.216,0.446,6.838,0.233c1.228,1.051,2.555,2.008,3.294,3.536
					c0.875,0.076,1.621,0.269,2.128,0.705c0.086,2.098,1.103,3.541,1.652,4.717c0.152,0.344,0.098,0.591,0.229,0.945
					c0.12,0.299,0.359,0.462,0.47,0.704c0.534,1.096,0.924,2.15,1.655,3.06c0.877,0.172,1.014-0.402,1.888-0.233
					c-0.026,1.127,0.289,1.911,1.181,2.124c0.345-0.219,1.15-1.182,0.462-1.648c0.131-1.074-1.254-0.631-1.176-1.649
					c-0.237-0.833,0.232-2.345,0.232-2.596c0-0.078-0.278-0.518-0.232-0.945c0.106-0.855,2.109-2.583,2.828-3.297
					c1.712-1.712,2.545-2.875,4.956-2.824c1.294,1.285,2.451,2.724,3.058,4.7c0.714,0.337,0.849-0.106,1.888,0
					c0.772,1.195,1.294,2.626,1.651,4.247c0.91-0.1,0.649-1.4,1.882-1.182c2.243,0.78,1.595,2.615,3.543,2.597
					c0.681-0.011,1.4-0.946,1.643-1.18c0.628-0.585,1.098-0.983,1.184-1.657c0.085-0.714-0.54-2.411-0.712-2.581
					c-0.102-0.109-0.134-0.379-0.241-0.476c-0.423-0.417-1.063-0.536-1.406-0.944c-1.217-1.423-0.477-3.303,1.406-3.064
					c0.691,0.516-0.765,2.137,0.715,2.123c1.036-0.062,0.451-1.741,0.935-2.352c1.898-0.81,3.601-1.24,4.719-2.355
					c1.075-1.083,1.062-1.493,1.65-3.067c0.55-1.459,0.792-1.9,0.463-3.3c-0.093-0.427-0.124-1.173-0.232-1.421
					c-0.199-0.522-0.903-1.024-1.183-1.413c-0.215-0.308-0.33-0.742-0.464-0.94c-0.367-0.528-0.454-0.276-0.475-0.936
					c-0.019-0.948,1.637-1.719,0.939-2.357c-0.972-0.682-2.333,0.466-2.819-0.71c0-1.18,0.747-1.61,1.413-2.124
					c0.76,0.858,1.317,0.997,2.821,0.712c0.527,1.122,1.513,1.936,2.133,3.059c0.322,0.604,0.176,1.498,0.944,1.887
					c0.694-0.085,1.191-0.375,1.64-0.708c0.302-2.571-1.461-3.09-2.123-4.714c0.743-0.918,0.8-2.496,1.414-3.536
					c0.57-0.383,1.521-0.376,2.126-0.711c0.648-0.854,1.23-2.18,1.653-3.528c0.363-1.204,0.953-3.218,0.935-4.248
					c-0.003-0.764-0.882-1.448-0.227-2.123c0.278,1.218,0.634,2.356,1.65,2.828c1.803-2.484-1.604-4.267-1.896-6.828
					c-2.416-0.672-5.376,0.039-5.89-1.892c-0.041-0.196,0.376-2.014,0.473-2.359c0.028-0.083,0.444-0.342,0.47-0.468
					c0.209-0.784,0.111-2.309,0.477-2.83c0.706-1.024,1.941-0.784,3.056-1.176c0.855-0.292,1.243-1.005,1.887-0.941
					c1.027,0.048,1.591,0.829,2.6,0.241c0.877-0.992-0.528-4.272,1.181-4.954c1.178-0.238,1.146,0.733,2.114,0.707
					c0.614-0.113,0.794-1.295,1.415-0.707c-0.524,1.478-0.165,3.139-0.471,4.713c-0.137,0.735-0.619,1.41-0.706,2.118
					c-0.375,3.077,0.881,4.292,1.884,5.898c0.713,1.141,1.293,2.609,2.357,3.063c1.178-0.916,0.672-3.111,0.944-4.475
					c0.073-0.366,0.468-0.601,0.468-0.947c0.014-0.358-0.388-1.003-0.468-1.648c-0.09-0.707,0.113-1.549,0-1.89
					c-0.263-0.762-1.33-1.283-1.652-2.118c-0.408-1.04,0.113-1.774-0.468-2.596c1.058-0.99,2.173-1.906,4.012-2.117
					c0.354-1.526,0.756-3.005,1.406-4.241c0.426-0.595,1.604-0.43,1.656-1.423c-0.289-1.781-2.184-1.999-2.596-3.526
					c-0.079-0.299,0.237-0.996,0.234-1.416c0-0.647-0.313-0.91-0.234-1.651c0.812-1.046,2.194-0.123,3.536-0.698
					c0.563-0.993-0.378-1.388-0.477-2.359C235.637-31.487,235.295-32.237,234.817-32.855z M141.719-33.802v-1.408
					c-0.677-0.55-1.781-0.038-2.362,0.236C139.57-33.951,140.587-33.211,141.719-33.802z M53.338-33.09
					c-0.179,1.744,0.732,2.404,1.405,3.296c2.175-0.536,5.198,0.515,5.663-1.413c0.177-0.8-0.358-0.569-0.715-1.183
					c-0.238-0.395,0.06-1.21-0.699-1.169c-0.985-0.189-0.449,1.129-1.421,0.936c-0.706-0.547-0.997-1.512-1.415-2.352
					c0.199-0.665,0.765-0.971,0.709-1.888c-1.011-0.715-1.738-0.436-2.591,0c-0.931,0.476-2.603,1.003-2.603,1.888
					C52.021-34.134,53.061-33.988,53.338-33.09z M144.783-34.503c0.565,0.065,0.441-0.133,0.942-0.472
					c0.853-0.591,0.812-0.621,1.176-1.418c0.197-0.417,0.642-0.562,0.468-0.938c-0.681-0.588-1.176,1.016-2.12,0.938
					c-0.482-0.302-0.421-1.14-1.414-0.938C142.821-35.939,143.741-34.636,144.783-34.503z M59.691-35.689
					c0.62-0.243,1.056-0.672,1.176-1.413c0.564-0.221,1.163-0.414,0.947-1.411h-1.178c0.032,1.215-1.55,0.813-2.12,1.411
					C58.47-36.187,58.894-35.746,59.691-35.689z M199.927-38.278c-0.078-0.476-0.853-0.564-1.643-0.234
					C198.236-36.922,200.054-37.597,199.927-38.278z M196.631-37.806c-0.652-1.578-4.036-0.909-5.178-0.238
					C191.106-34.041,196.367-35.005,196.631-37.806z M65.583-34.975h1.654c0.123,0.735,0.418,1.317,0.707,1.884
					c0.654,0.171,0.719-0.535,0.945-0.95c0.965-1.777-0.265-2.326-1.42-3.061c0.065-0.991-0.682-1.196-0.945-1.877
					C64.09-39.204,64.475-35.825,65.583-34.975z M163.865-37.102c0.145,0.087,0.311,0.398,0.477,0.478
					c1.42,0.629,2.402,0.038,3.533-0.239c0.436,0.595,0.436,1.611,1.414,1.652c0.801-0.299,1.355-0.854,1.654-1.652
					c-0.472-0.529-0.91-1.355-1.892-1.416c-0.72-0.045-0.937,0.24-1.643,0.472c-0.769-1.037-1.641-1.977-3.304-2.123
					c-0.436-0.891-0.923-1.735-2.352-1.645c-0.891,1.164-0.509,2.596,0.232,3.53C162.153-37.831,163.575-37.285,163.865-37.102z
					 M103.058-12.585c0.112-0.047,0.393,0.07,0.47,0c0.251-0.226,0.422-0.971,0.714-1.416c0.395-0.608,0.818-0.631,0.937-1.18
					c0.108-0.444-0.421-1.649-0.223-2.593c0.065-0.373,0.461-0.547,0.699-0.936c0.443-0.748,0.741-1.293,1.176-2.12
					c0.468-0.874,0.581-2.193,0.236-3.778c0.349-0.279,0.662-0.588,0.948-0.941c-0.494-2.04-0.01-4.02,0.941-5.657
					c0.208-0.367,0.336-0.769,0.47-0.942c0.778-1.089,2.67-1.63,2.596-3.303c-0.697-1.199-2.502-0.983-3.778-0.461
					c-0.209-0.423-0.566-0.699-0.705-1.191c0.187-0.682,1.115-0.605,0.936-1.645c-0.335-0.674-1.068-0.883-1.643-1.411
					c-0.971-0.904-1.34-1.712-2.827-2.12c-0.444-0.126-1.289-0.266-1.645-0.235c-0.476,0.023-1.234,0.77-2.127,0.938
					c-0.64,0.122-1.339-0.135-1.65,0c-0.935,0.413-1.375,1.696-2.354,2.114c-0.799,0.353-1.276-0.341-1.888,0.482
					c-0.594-0.977-2.07-1.073-3.773-0.951c-0.116-3.097-2.799-3.638-4.948-4.714h-3.763c-1.176,1.269-3.728,1.15-5.664,1.658
					c-0.685,0.408-0.593,1.597-1.181,2.12c-0.471-0.243-0.365-1.047-1.17-0.95c-2.459,1.089-3.277,3.804-3.548,7.074
					c0.217,0.971,1.751,0.622,1.897,1.652c-0.39,1.263-1.712,1.591-3.073,1.884c-1.174-0.082-0.847-1.672-2.353-1.417
					c-1.545,1.236,1.811,2.928-0.243,4.005c-1.138-0.562-1.71-1.638-1.168-3.289c-0.821-1.037-1.903-0.383-3.539-0.482
					c-0.709,1.359,0.533,2.133,0.704,3.303c1.124,0.141,2.083,0.434,2.361,1.411c0.737,0.121,0.831-0.421,1.643-0.222
					c0.917,1.888,4.771,2.882,7.075,1.874c0.292-0.667,0.292-1.459,0-2.112c-1.381-1.031-3.866,0.482-4.235-1.419
					c1.321-0.774,1.968,0.937,3.766,0.469c0.566,0.681,1.36,0.777,2.356,0.468c0.69-0.976,0.926-2.04,1.883-2.821
					c0.299-0.243,0.967-0.209,1.413-0.468c0.39-0.225,0.488-0.723,0.947-0.715c0.35-0.67,0.429-1.611,0.936-2.12
					c1.857-0.192,2.64-1.445,4.249-1.882c0.263,0.679,0.423,1.459,0.468,2.358c-1.153,1.115-3.693,0.852-5.184,1.643
					c0.599,1.955-0.622,4.353,0.71,5.656c1.95,0.448,3.326,0.019,4.243,1.417c0.488,0.749,0.794,3.008,0.714,4.719
					c-0.041,0.675-0.461,1.385-0.483,2.12c-0.021,0.681,0.304,1.452,0.237,1.88c-0.11,0.704-0.916,1.243-0.705,1.886
					c-0.093,0.963,1.004,0.727,1.181,1.414c-0.647,0.903-1.722,1.873-1.888,3.539c-0.124,1.257,0.522,4.05,0.945,5.415
					c0.342,1.156,0.438,1.865,1.178,2.36c0.236,0.15,0.651,0.045,0.942,0.236c0.615,0.392,0.899,1.273,1.653,0.947
					c1.126-0.732,1.359-2.114,2.119-3.303c0.106-0.172,0.094-0.523,0.24-0.7c0.064-0.106,0.416-0.154,0.461-0.247
					c0.373-0.672,0.224-1.529,0.948-2.114c0.625-0.514,2.355-0.435,3.538-1.189c0.912-0.572,1.394-1.834,2.59-2.349
					c0.879-0.386,2.325-0.25,3.304-0.707c0.104-0.061,0.152-0.437,0.237-0.47c0.121-0.054,0.356,0.073,0.468,0
					C102.914-12.176,102.988-12.546,103.058-12.585z"/>
				<rect x="11.181" y="43.199" fill-rule="evenodd" clip-rule="evenodd" fill="#0077B3" width="229.808" height="9.433"/>
				<g>
					<g>
						<g>
							<g>
								<circle fill="#002945" cx="188.97" cy="10.302" r="1.333"/>
								<path fill="#002945" d="M188.97,10.302"/>
							</g>
						</g>
						<g>
							<polygon fill="#002945" points="181.543,14.296 181.517,14.607 196.542,14.607 196.516,14.296 189.029,11.863 							"/>
						</g>
					</g>
					<g>
						<path fill="#002945" d="M196.715,40.213c0.059,0.028,0.122,0.051,0.206,0.051c0.434,0,0.672-0.279,0.934-0.567
							c0.204,0.519,0.278,1.039,0.278,1.723c0,0.384-0.031,0.912-0.415,0.912c-0.581,0-0.767-0.664-0.829-1.244
							C196.85,40.739,196.776,40.479,196.715,40.213z M181.214,40.213c-0.061,0.266-0.135,0.526-0.174,0.875
							c-0.062,0.581-0.249,1.244-0.829,1.244c-0.384,0-0.415-0.529-0.415-0.912c0-0.684,0.074-1.204,0.278-1.723
							c0.262,0.288,0.5,0.567,0.934,0.567C181.092,40.264,181.156,40.241,181.214,40.213z M183.705,38.208
							c0.016-0.07,0.033-0.14,0.033-0.226c0-0.285-0.367-0.367-0.652-0.367c-0.204,0-0.285,0.163-0.489,0.163
							c-0.134,0-0.222-0.071-0.308-0.147c-0.231-0.465-0.601-0.794-1.148-0.794c-0.5,0-0.909,0.158-1.241,0.427
							c-1.246-0.548-1.181-1.502-1.181-1.502s-0.085-0.032-0.233-0.067l0.193-0.004c0,0,0.692-0.045,0.698-0.391
							c0.006-0.345-0.312-0.264-0.312-0.264s0.38-0.31,1.282-0.899c0.903-0.589,0.978-1.584,0.978-1.584s0.431,0.036,0.465-0.251
							c0.034-0.287-0.111-0.232-0.111-0.232h-7.482c0,0-0.145-0.055-0.111,0.232c0.034,0.287,0.465,0.251,0.465,0.251
							s0.075,0.995,0.977,1.584c0.903,0.589,1.282,0.899,1.282,0.899s-0.318-0.081-0.312,0.264c0.006,0.345,0.698,0.391,0.698,0.391
							c0.015,0.762,0.222,1.506,0.636,2.148c0.42,0.651,0.601,0.83,1.085,1.086c-0.196,0.675-0.275,1.431-0.275,2.132
							c0,1.41,0.172,2.762,1.582,2.762c0.788,0,1.611-0.719,1.798-1.487c0.188-0.764,0.367-1.322,0.476-1.938
							c0.276,0.157,0.18,0.401,0.935,0.44c-0.002,0.249,0.097,0.992,1.325,1.607c1.499,0.751,2.798,0.987,2.798,0.987
							s-0.116-0.027-0.107,0.462c0.008,0.489,0.839,0.273,0.839,0.273s-0.421,0.623-0.502,0.93l-0.377,1.464l-1.512,0.142
							c0,0-0.633,0.011-0.677,0.818c-0.043,0.807,0.481,1.172,0.481,1.172l0.766-0.013c0,0,0.294,0.351,0.673,0.65
							c0.379,0.299,0.728,0.466,0.728,0.466s-0.964,6.737-1.083,8.167c-0.119,1.43-0.004,3.429,0.009,4.166
							c0.013,0.737,0.265,1.999,0.265,1.999l-0.591,0.125c0,0,0.032,0.172-0.165,0.463c-0.196,0.291-0.989,1.082-1.247,1.116
							c-0.258,0.033-0.947,0.161-0.947,0.161s-0.258,0.08-0.137,0.394c0.121,0.315,0.47,0.567,0.47,0.567s-0.002,1.537,0.966,2.574
							c0.968,1.037,2.229,1.361,2.229,1.361l-0.223,2.076c0,0-0.48-0.078-0.645,0.328c-0.166,0.406,0.078,1.15,0.078,1.15
							l-1.119,0.181c0,0-0.316,0.005-0.424,0.468c-0.107,0.462,0.246,0.917,0.421,1.029c0.175,0.112,0.724,0.246,0.724,0.246
							l-0.191,5.287l-2.148,0.642c0,0-0.51,0.47-0.327,1.071c0.183,0.601,0.879,0.906,1.081,0.902l0.978-0.017l0.558,0.624
							l-1.427,0.676c0,0-1.466,0.745-1.851,1.126c-0.385,0.381-1.72,1.412-1.72,1.412l-4.452,0.096c0,0-0.461-0.05-0.454,0.353
							s0.068,0.603,0.068,0.603l0.47,0.528c0,0-1.14,0.049-1.536,0.401c-0.397,0.352-0.613,1.162-0.613,1.162
							s0.176,0.17,0.268,0.485c0.092,0.315-0.132,0.664-0.303,0.754c-0.171,0.089-0.65-0.939-1.627-0.864
							c-0.977,0.075-1.679,0.472-1.665,1.296c0.014,0.824,0.043,1.427,0.796,1.731c0.692,0.279,32.661,0.279,33.353,0
							c0.754-0.303,0.782-0.907,0.796-1.731c0.014-0.824-0.687-1.221-1.665-1.296c-0.977-0.075-1.456,0.953-1.627,0.864
							c-0.171-0.089-0.395-0.439-0.303-0.754c0.092-0.315,0.268-0.485,0.268-0.485s-0.216-0.81-0.613-1.162
							c-0.397-0.352-1.536-0.401-1.536-0.401l0.47-0.528c0,0,0.061-0.2,0.068-0.603c0.007-0.403-0.454-0.353-0.454-0.353
							l-4.452-0.096c0,0-1.335-1.031-1.72-1.412c-0.385-0.381-1.851-1.126-1.851-1.126l-1.427-0.676l0.558-0.624l0.978,0.017
							c0.201,0.003,0.898-0.301,1.081-0.902c0.183-0.601-0.327-1.071-0.327-1.071l-2.148-0.642l-0.191-5.287
							c0,0,0.549-0.134,0.724-0.246c0.175-0.112,0.528-0.567,0.421-1.029c-0.107-0.462-0.424-0.468-0.424-0.468l-1.119-0.181
							c0,0,0.243-0.744,0.078-1.15c-0.166-0.406-0.645-0.328-0.645-0.328l-0.223-2.076c0,0,1.261-0.323,2.229-1.361
							c0.968-1.037,0.966-2.574,0.966-2.574s0.35-0.253,0.47-0.567c0.121-0.315-0.137-0.394-0.137-0.394s-0.689-0.127-0.947-0.161
							c-0.258-0.033-1.051-0.824-1.247-1.116c-0.196-0.291-0.165-0.463-0.165-0.463l-0.591-0.125c0,0,0.252-1.262,0.265-1.999
							c0.013-0.737,0.128-2.736,0.009-4.166c-0.119-1.43-1.083-8.167-1.083-8.167s0.348-0.167,0.728-0.466
							c0.379-0.299,0.673-0.65,0.673-0.65l0.766,0.013c0,0,0.524-0.365,0.481-1.172c-0.043-0.807-0.677-0.818-0.677-0.818
							l-1.512-0.142l-0.377-1.464c-0.081-0.307-0.502-0.93-0.502-0.93s0.831,0.216,0.839-0.273c0.009-0.489-0.107-0.462-0.107-0.462
							s1.299-0.236,2.798-0.987c1.244-0.623,1.336-1.378,1.331-1.617c0.608-0.06,0.54-0.283,0.798-0.43
							c0.108,0.617,0.288,1.174,0.476,1.938c0.187,0.767,1.01,1.487,1.797,1.487c1.41,0,1.582-1.352,1.582-2.762
							c0-0.701-0.08-1.457-0.275-2.132c0.484-0.255,0.665-0.434,1.085-1.086c0.414-0.642,0.621-1.386,0.636-2.148
							c0,0,0.692-0.045,0.698-0.391c0.006-0.345-0.312-0.264-0.312-0.264s0.38-0.31,1.282-0.899
							c0.903-0.589,0.978-1.584,0.978-1.584s0.431,0.036,0.465-0.251c0.034-0.287-0.111-0.232-0.111-0.232h-7.481
							c0,0-0.145-0.055-0.111,0.232c0.034,0.287,0.465,0.251,0.465,0.251s0.075,0.995,0.978,1.584
							c0.903,0.589,1.282,0.899,1.282,0.899s-0.318-0.081-0.312,0.264c0.006,0.345,0.698,0.391,0.698,0.391l0.193,0.004
							c-0.148,0.035-0.233,0.067-0.233,0.067s0.066,0.954-1.181,1.502c-0.332-0.268-0.741-0.427-1.241-0.427
							c-0.547,0-0.917,0.329-1.148,0.794c-0.086,0.076-0.175,0.147-0.308,0.147c-0.204,0-0.285-0.163-0.489-0.163
							c-0.285,0-0.652,0.082-0.652,0.367c0,0.051,0.006,0.095,0.014,0.138c-0.057-0.047-0.115-0.112-0.162-0.203
							c-0.167-0.32-0.8-0.455-1.359-0.752c-0.56-0.298-1.696-0.116-1.696-0.116s-0.199-0.136-0.31-0.397
							c-0.111-0.261-0.403-0.007-0.403-0.007s0.275-0.888,0.091-1.898c-0.184-1.011-0.353-2.845-0.544-3.481
							c-0.062-0.206-0.161-0.316-0.268-0.371l0.217-0.004c0,0,0.692-0.045,0.698-0.391c0.006-0.345-0.312-0.264-0.312-0.264
							s0.38-0.31,1.282-0.899c0.903-0.589,0.978-1.584,0.978-1.584s0.431,0.036,0.465-0.251c0.034-0.287-0.111-0.232-0.111-0.232
							h-7.481c0,0-0.145-0.055-0.111,0.232c0.034,0.287,0.465,0.251,0.465,0.251s0.075,0.995,0.977,1.584
							c0.903,0.589,1.282,0.899,1.282,0.899s-0.318-0.081-0.312,0.264c0.006,0.345,0.698,0.391,0.698,0.391l0.217,0.004
							c-0.106,0.055-0.206,0.165-0.268,0.371c-0.19,0.637-0.36,2.471-0.544,3.481c-0.184,1.011,0.091,1.898,0.091,1.898
							s-0.292-0.254-0.403,0.007c-0.111,0.261-0.31,0.397-0.31,0.397s-0.62-0.182-1.18,0.116c-0.56,0.298-1.709,0.433-1.876,0.752
							C183.926,38.089,183.801,38.17,183.705,38.208z"/>
					</g>
					<g>
						<polygon fill-rule="evenodd" clip-rule="evenodd" fill="#FFFFFF" points="194.328,14.651 183.73,14.651 185.59,27.184 
							192.468,27.184 						"/>
					</g>
					<g>
						<g>
							<g>
								<circle fill="#002945" cx="199.908" cy="15.175" r="1.333"/>
								<path fill="#002945" d="M199.908,15.175"/>
							</g>
						</g>
						<g>
							<polygon fill="#002945" points="192.481,19.169 192.455,19.48 207.481,19.48 207.455,19.169 199.968,16.737 							"/>
						</g>
					</g>
					<g>
						<polygon fill-rule="evenodd" clip-rule="evenodd" fill="#FFFFFF" points="205.267,19.525 194.669,19.525 196.529,32.058 
							203.407,32.058 						"/>
					</g>
					<g>
						<g>
							<g>
								<circle fill="#002945" cx="177.876" cy="15.115" r="1.333"/>
								<path fill="#002945" d="M177.876,15.115"/>
							</g>
						</g>
						<g>
							<polygon fill="#002945" points="170.449,19.109 170.423,19.42 185.448,19.42 185.422,19.109 177.935,16.676 							"/>
						</g>
					</g>
					<g>
						<polygon fill-rule="evenodd" clip-rule="evenodd" fill="#FFFFFF" points="183.234,19.464 172.637,19.464 174.497,31.997 
							181.374,31.997 						"/>
					</g>
				</g>
				<g>
					<polygon fill-rule="evenodd" clip-rule="evenodd" fill="#FFFFFF" points="231.072,96.27 228.587,94.698 149.52,94.698 
						146.831,96.27 146.831,99.854 231.072,99.854 					"/>
				</g>
			</g>
		</g>
	</g>
	<g>
		<g>
			<path fill-rule="evenodd" clip-rule="evenodd" fill="#4D4D4D" d="M118.376,16.011h6.399c2.968,0,5.111,0.433,6.429,1.298
				c1.327,0.865,1.991,2.232,1.991,4.099c0,1.258-0.324,2.305-0.973,3.141c-0.649,0.836-1.583,1.362-2.802,1.578v0.147
				c1.514,0.285,2.624,0.851,3.332,1.696c0.717,0.836,1.076,1.971,1.076,3.406c0,1.937-0.678,3.455-2.035,4.556
				c-1.347,1.091-3.225,1.637-5.633,1.637h-7.785V16.011z M121.9,24.917h3.391c1.474,0,2.551-0.231,3.229-0.693
				c0.678-0.472,1.017-1.268,1.017-2.389c0-1.012-0.369-1.744-1.106-2.197c-0.728-0.452-1.887-0.678-3.48-0.678H121.9V24.917z
				 M121.9,27.777v6.827h3.745c1.474,0,2.585-0.28,3.332-0.84c0.757-0.57,1.135-1.464,1.135-2.684c0-1.121-0.383-1.951-1.15-2.492
				c-0.767-0.54-1.932-0.81-3.494-0.811H121.9z"/>
			<path fill-rule="evenodd" clip-rule="evenodd" fill="#4D4D4D" d="M146.334,37.568l-0.693-2.271h-0.118
				c-0.787,0.993-1.578,1.671-2.374,2.035c-0.796,0.354-1.819,0.531-3.067,0.531c-1.603,0-2.856-0.432-3.76-1.298
				c-0.895-0.865-1.342-2.089-1.342-3.671c0-1.681,0.624-2.949,1.873-3.804c1.248-0.855,3.15-1.322,5.706-1.401l2.816-0.088v-0.87
				c0-1.042-0.246-1.818-0.737-2.33c-0.482-0.521-1.234-0.781-2.256-0.781c-0.836,0-1.637,0.123-2.403,0.369
				c-0.767,0.246-1.504,0.536-2.212,0.87l-1.121-2.477c0.885-0.462,1.853-0.81,2.905-1.047c1.051-0.246,2.044-0.368,2.978-0.369
				c2.074,0,3.637,0.452,4.689,1.357c1.062,0.904,1.592,2.325,1.592,4.261v10.985H146.334z M141.173,35.208
				c1.258,0,2.266-0.349,3.023-1.047c0.767-0.708,1.15-1.696,1.15-2.964v-1.415l-2.094,0.088c-1.632,0.059-2.821,0.335-3.568,0.826
				c-0.737,0.482-1.106,1.224-1.106,2.226c0,0.728,0.216,1.293,0.649,1.696C139.659,35.012,140.308,35.208,141.173,35.208z"/>
			<path fill-rule="evenodd" clip-rule="evenodd" fill="#4D4D4D" d="M160.107,20.965c0.698,0,1.273,0.049,1.725,0.147l-0.339,3.229
				c-0.492-0.118-1.003-0.177-1.533-0.177c-1.386,0-2.512,0.453-3.377,1.357c-0.855,0.905-1.283,2.079-1.283,3.524v8.522h-3.465
				V21.26h2.713l0.457,2.875h0.177c0.541-0.973,1.243-1.744,2.109-2.315C158.166,21.25,159.104,20.965,160.107,20.965z"/>
			<path fill-rule="evenodd" clip-rule="evenodd" fill="#4D4D4D" d="M166.508,37.568h-3.465V21.26h3.465V37.568z M162.837,16.94
				c0-0.619,0.167-1.096,0.501-1.43c0.344-0.334,0.83-0.501,1.46-0.501c0.609,0,1.081,0.167,1.416,0.501
				c0.344,0.334,0.516,0.811,0.516,1.43c0,0.59-0.172,1.057-0.516,1.401c-0.335,0.335-0.806,0.501-1.416,0.501
				c-0.629,0-1.116-0.167-1.46-0.501C163.004,17.997,162.837,17.53,162.837,16.94z"/>
		</g>
	</g>
	<path fill="#4D4D4D" d="M47.021,24.231h9.276v11.595c-2.52,0.864-5.286,1.292-8.31,1.292c-3.311,0-5.87-0.96-7.681-2.88
		c-1.812-1.921-2.712-4.666-2.712-8.227c0-3.467,0.987-6.164,2.97-8.098c1.981-1.934,4.754-2.888,8.323-2.888
		c1.355,0,2.628,0.123,3.827,0.381c1.207,0.251,2.255,0.572,3.148,0.961l-1.847,4.556c-1.547-0.765-3.248-1.145-5.102-1.145
		c-1.689,0-3.003,0.558-3.929,1.656c-0.933,1.104-1.389,2.675-1.389,4.728c0,2.009,0.415,3.541,1.26,4.596
		c0.831,1.056,2.036,1.575,3.617,1.575c0.865,0,1.662-0.076,2.383-0.247V28.72h-3.833V24.231z"/>
	<path fill="#4D4D4D" d="M88.997,24.231h9.284v11.595c-2.521,0.864-5.292,1.292-8.31,1.292c-3.31,0-5.872-0.96-7.684-2.88
		c-1.805-1.921-2.71-4.666-2.71-8.227c0-3.467,0.986-6.164,2.968-8.098c1.976-1.934,4.754-2.888,8.324-2.888
		c1.349,0,2.629,0.123,3.835,0.381c1.192,0.251,2.241,0.572,3.132,0.961l-1.838,4.556c-1.546-0.765-3.25-1.145-5.102-1.145
		c-1.696,0-3.004,0.558-3.936,1.656c-0.92,1.104-1.383,2.675-1.383,4.728c0,2.009,0.415,3.541,1.253,4.596
		c0.838,1.056,2.043,1.575,3.623,1.575c0.865,0,1.663-0.076,2.385-0.247V28.72h-3.842V24.231z"/>
	<path fill="#4D4D4D" d="M71.69,25.826c0-1.976-0.388-3.433-1.164-4.387c-0.777-0.946-1.969-1.424-3.555-1.424h-1.69v12.043h1.295
		c1.77,0,3.064-0.512,3.882-1.539C71.282,29.504,71.69,27.931,71.69,25.826z M77.717,25.621c0,3.582-0.98,6.349-2.962,8.29
		c-1.969,1.941-4.747,2.909-8.323,2.909h-6.953V15.322h7.437c3.445,0,6.109,0.887,7.988,2.651
		C76.785,19.731,77.717,22.285,77.717,25.621z"/>
	<g>
		<g>
			<g>
				<defs>
					<path id="SVGID_25_" d="M11.283,7.336L11.283,7.336c0.023,0.001,0.047,0.001,0.07,0.003h0.001
						C11.331,7.337,11.307,7.337,11.283,7.336z"/>
				</defs>
				<clipPath id="SVGID_4_">
					<use xlink:href="#SVGID_25_"  overflow="visible"/>
				</clipPath>
				<g clip-path="url(#SVGID_4_)">
					
						<image overflow="visible" width="3" height="3" xlink:href="4E7F883C9B6D6F44.jpg"  transform="matrix(0.3162 0 0 -0.3162 10.7341 7.8709)">
					</image>
				</g>
			</g>
		</g>
		<g>
			<g>
				<defs>
					<path id="SVGID_27_" d="M11.354,7.339L11.354,7.339c1.19,0.057,2.615,0.889,3.22,1.894l11.334,18.872
						c0.627,1.042,0.627,2.749,0,3.794l-1.755,2.925l1.756-2.925c0.627-1.045,0.627-2.752,0-3.794L14.574,9.233
						C13.97,8.228,12.545,7.396,11.354,7.339z"/>
				</defs>
				<clipPath id="SVGID_5_">
					<use xlink:href="#SVGID_27_"  overflow="visible"/>
				</clipPath>
				<g clip-path="url(#SVGID_5_)">
					
						<image overflow="visible" width="51" height="90" xlink:href="4E7F883C9B6D6F45.jpg"  transform="matrix(0.3162 0 0 -0.3162 10.7341 35.376)">
					</image>
				</g>
			</g>
		</g>
		<g>
			<g>
				<defs>
					<path id="SVGID_29_" d="M0.274,9.233L11.61,28.105l0,0l0.048,0.08c-0.016-0.028-0.032-0.057-0.048-0.084l-3.606-6.028
						L0.274,9.233z"/>
				</defs>
				<clipPath id="SVGID_6_">
					<use xlink:href="#SVGID_29_"  overflow="visible"/>
				</clipPath>
				<g clip-path="url(#SVGID_6_)">
					
						<image overflow="visible" width="39" height="63" xlink:href="4E7F883C9B6D6F43.jpg"  transform="matrix(0.3162 0 0 -0.3162 -0.3311 28.7368)">
					</image>
				</g>
			</g>
		</g>
		<g>
			<g>
				<defs>
					<path id="SVGID_31_" d="M8.004,22.073l3.606,6.028c0.016,0.027,0.032,0.056,0.048,0.084l6.265,10.37l0.882,1.46
						c0.135,0.226,0.24,0.482,0.315,0.756l0,0c-0.075-0.273-0.18-0.53-0.315-0.756L8.004,22.073z"/>
				</defs>
				<clipPath id="SVGID_7_">
					<use xlink:href="#SVGID_31_"  overflow="visible"/>
				</clipPath>
				<g clip-path="url(#SVGID_7_)">
					
						<image overflow="visible" width="38" height="63" xlink:href="4E7F883C9B6D6F4C.jpg"  transform="matrix(0.3162 0 0 -0.3162 7.5725 41.3824)">
					</image>
				</g>
			</g>
		</g>
		<g>
			<g>
				<g>
					<defs>
						<path id="SVGID_33_" d="M19.261,41.823v0.07c0-0.013,0-0.026,0-0.039C19.261,41.844,19.261,41.834,19.261,41.823z
							 M17.923,38.555l0.882,1.461c0.135,0.226,0.24,0.482,0.315,0.755c-0.075-0.273-0.18-0.53-0.315-0.756L17.923,38.555z"/>
					</defs>
					<clipPath id="SVGID_8_">
						<use xlink:href="#SVGID_33_"  overflow="visible"/>
					</clipPath>
					<g clip-path="url(#SVGID_8_)">
						
							<image overflow="visible" width="7" height="13" xlink:href="4E7F883C9B6D6F4F.jpg"  transform="matrix(0.3162 0 0 -0.3162 17.3729 42.3306)">
						</image>
					</g>
				</g>
				<path fill="none" d="M19.261,41.823v0.07c0-0.013,0-0.026,0-0.039C19.261,41.844,19.261,41.834,19.261,41.823z"/>
				<path fill="none" d="M17.923,38.555l0.882,1.461c0.135,0.226,0.24,0.482,0.315,0.755c-0.075-0.273-0.18-0.53-0.315-0.756
					L17.923,38.555z"/>
			</g>
		</g>
		<g>
			<path fill="#009FE3" d="M6.098,7.336H1.293C0.116,7.363-0.342,8.208,0.274,9.233l0,0l7.73,12.84l10.802,17.942
				c0.135,0.226,0.24,0.482,0.315,0.756c0.089,0.326,0.136,0.677,0.141,1.029v0.023c0,0.01,0,0.021,0,0.031c0,0.013,0,0.026,0,0.039
				v0.025c-0.008,0.585-0.13,1.17-0.364,1.655l4.504-7.495L6.098,7.336"/>
		</g>
		<g>
			<path fill="#E30613" d="M11.283,7.336H6.098l17.303,28.742v-0.001l0.753-1.254l1.755-2.925c0.627-1.045,0.627-2.752,0-3.794
				L14.574,9.233c-0.605-1.005-2.03-1.837-3.221-1.894C11.33,7.337,11.307,7.337,11.283,7.336z"/>
		</g>
		<g>
			<g>
				<defs>
					<path id="SVGID_35_" d="M11.248,52.665H1.346c0.005,0,0.005,0,0.005,0h4.745h5.13C11.233,52.665,11.24,52.665,11.248,52.665z"
						/>
				</defs>
				<clipPath id="SVGID_9_">
					<use xlink:href="#SVGID_35_"  overflow="visible"/>
				</clipPath>
				<g clip-path="url(#SVGID_9_)">
					
						<image overflow="visible" width="34" height="3" xlink:href="4E7F883C9B6D6F4D.jpg"  transform="matrix(0.3162 0 0 -0.3162 0.9334 53.0798)">
					</image>
				</g>
			</g>
		</g>
		<g>
			<g>
				<defs>
					<path id="SVGID_37_" d="M13.866,39.756L6.095,52.664H1.35c-0.566,0-0.963-0.187-1.164-0.491
						c0.201,0.305,0.599,0.492,1.164,0.492h9.897c1.211-0.011,2.704-0.858,3.327-1.897c-0.627,1.046-2.134,1.897-3.35,1.897H6.095
						L13.866,39.756z"/>
				</defs>
				<clipPath id="SVGID_10_">
					<use xlink:href="#SVGID_37_"  overflow="visible"/>
				</clipPath>
				<g clip-path="url(#SVGID_10_)">
					
						<image overflow="visible" width="49" height="44" xlink:href="4E7F883C9B6D6F42.jpg"  transform="matrix(0.3162 0 0 -0.3162 -0.3311 53.0799)">
					</image>
				</g>
			</g>
		</g>
		<g>
			<path fill="#FFE24B" d="M13.866,39.756L6.095,52.664h5.129c1.215,0,2.723-0.851,3.35-1.897l0,0l4.321-7.191L13.866,39.756z"/>
		</g>
		<g>
			<path fill="#4CB062" d="M9.084,36.123L0.201,50.974c-0.22,0.472-0.216,0.894-0.015,1.199c0.201,0.305,0.598,0.491,1.164,0.491
				h4.745l7.771-12.908L9.084,36.123z"/>
		</g>
		<g>
			<g>
				<defs>
					<rect id="SVGID_39_" x="11.634" y="28.098" width="0" height="0.093"/>
				</defs>
				<clipPath id="SVGID_11_">
					<use xlink:href="#SVGID_39_"  overflow="visible"/>
				</clipPath>
				<g clip-path="url(#SVGID_11_)">
					
						<image overflow="visible" width="3" height="3" xlink:href="4E7F883C9B6D6F46.jpg"  transform="matrix(0.3162 0 0 -0.3162 11.0503 28.7366)">
					</image>
				</g>
			</g>
		</g>
		<g>
			<g>
				<defs>
					<polygon id="SVGID_41_" points="11.658,28.185 11.658,28.185 16.253,35.791 13.866,39.756 16.253,35.791 17.923,38.555 					
						"/>
				</defs>
				<clipPath id="SVGID_12_">
					<use xlink:href="#SVGID_41_"  overflow="visible"/>
				</clipPath>
				<g clip-path="url(#SVGID_12_)">
					
						<image overflow="visible" width="23" height="39" xlink:href="4E7F883C9B6D6F47.jpg"  transform="matrix(0.3162 0 0 -0.3162 11.0503 40.1178)">
					</image>
				</g>
			</g>
		</g>
		<g>
			<path fill="#F7C339" d="M16.253,35.791l-2.387,3.964l5.03,3.821l0.002-0.003c0.237-0.491,0.36-1.086,0.364-1.68v-0.07
				c-0.003-0.361-0.05-0.719-0.141-1.053c-0.075-0.273-0.18-0.529-0.315-0.755l-0.882-1.461L16.253,35.791z"/>
		</g>
		<g>
			<path fill="#009450" d="M11.61,28.105c0.313,0.521,0.47,1.208,0.47,1.896l0,0c0,0.688-0.157,1.376-0.47,1.898l0,0l-2.526,4.224
				l4.782,3.633l2.387-3.964l-4.595-7.606L11.61,28.105z"/>
		</g>
		<g>
			<g>
				<g>
					<defs>
						<path id="SVGID_43_" d="M19.261,41.893c-0.004,0.593-0.127,1.188-0.364,1.68l0,0c0.234-0.485,0.356-1.07,0.364-1.655V41.893z
							 M19.121,40.771c0.091,0.333,0.138,0.692,0.141,1.053V41.8C19.257,41.448,19.21,41.097,19.121,40.771z"/>
					</defs>
					<clipPath id="SVGID_13_">
						<use xlink:href="#SVGID_43_"  overflow="visible"/>
					</clipPath>
					<g clip-path="url(#SVGID_13_)">
						
							<image overflow="visible" width="4" height="11" xlink:href="586EB0C276D11523.jpg"  transform="matrix(0.3162 0 0 -0.3162 18.3216 43.9116)">
						</image>
					</g>
				</g>
				<path fill="none" d="M19.261,41.893c-0.004,0.593-0.127,1.188-0.364,1.68l0,0c0.234-0.485,0.356-1.07,0.364-1.655V41.893z"/>
				<path fill="none" d="M19.121,40.771c0.091,0.333,0.138,0.692,0.141,1.053V41.8C19.257,41.448,19.21,41.097,19.121,40.771z"/>
			</g>
		</g>
	</g>
</g>
</svg>
