<?xml version="1.0" encoding="utf-8"?>
<!-- Generator: Adobe Illustrator 17.0.0, SVG Export Plug-In . SVG Version: 6.00 Build 0)  -->
<!DOCTYPE svg PUBLIC "-//W3C//DTD SVG 1.1//EN" "http://www.w3.org/Graphics/SVG/1.1/DTD/svg11.dtd">
<svg version="1.1" id="Livello_1" xmlns="http://www.w3.org/2000/svg" xmlns:xlink="http://www.w3.org/1999/xlink" x="0px" y="0px"
	 width="495.33px" height="86.229px" viewBox="0 0 495.33 86.229" enable-background="new 0 0 495.33 86.229" xml:space="preserve">
<g>
	<g transform="translate(-985.904 -3367.887)">
		<g>
			<path fill="none" d="M1249.415,3902.277l-12.117,19.772c-0.681,1.11-0.172,2.019,1.131,2.019h14.209
				c1.302,0,2.929-0.906,3.615-2.013l6.416-10.365L1249.415,3902.277z"/>
			<path fill="none" d="M1267.028,3883.49l-10.774-17.406c-0.686-1.107-2.312-2.014-3.615-2.014h-14.21
				c-1.303,0-1.811,0.909-1.13,2.019l13.796,22.511l7.755-10.919L1267.028,3883.49L1267.028,3883.49z"/>
		</g>
		
			<linearGradient id="SVGID_1_" gradientUnits="userSpaceOnUse" x1="4454.4414" y1="-465.1923" x2="4469.9292" y2="-474.8703" gradientTransform="matrix(1 0 0 -1 -3210.4229 3441.988)">
			<stop  offset="0.54" style="stop-color:#0A985C"/>
			<stop  offset="0.54" style="stop-color:#F6C25B"/>
		</linearGradient>
		<path fill="url(#SVGID_1_)" d="M1261.928,3907.385c-1.179-1.983-4.039-7.077-6.177-10.872l-2.412-4.248
			c0.555,1.118,0.515,2.779-0.122,3.819l-15.911,25.963c-0.68,1.109-0.172,2.02,1.132,2.02h14.207c1.303,0,2.93-0.907,3.615-2.014
			l6.427-10.378C1262.55,3911.863,1263.446,3909.935,1261.928,3907.385z"/>
		<g>
			<path fill="none" d="M1249.422,3902.275l-12.116,19.773c-0.68,1.109-0.171,2.02,1.132,2.02h14.208
				c1.303,0,2.929-0.907,3.615-2.014l6.419-10.366L1249.422,3902.275L1249.422,3902.275z"/>
			<path fill="none" d="M1267.036,3883.487l-10.776-17.406c-0.683-1.108-2.311-2.013-3.613-2.013h-14.209
				c-1.304,0-1.812,0.909-1.132,2.02l13.797,22.513l7.757-10.921L1267.036,3883.487z"/>
			<path opacity="0.09" fill="#010101" enable-background="new    " d="M1272.339,3896.083c0.688-1.108,0.688-2.922,0.002-4.03
				l-5.304-8.567l-8.177-5.808l-7.757,10.921l2.114,3.448c0.681,1.11,0.681,2.928,0,4.038l-3.795,6.19l13.257,9.413
				L1272.339,3896.083z"/>
		</g>
		
			<linearGradient id="SVGID_2_" gradientUnits="userSpaceOnUse" x1="4458.9097" y1="-447.0015" x2="4474.7935" y2="-437.0761" gradientTransform="matrix(1 0 0 -1 -3210.4229 3441.988)">
			<stop  offset="0.57" style="stop-color:#5586C5"/>
			<stop  offset="0.57" style="stop-color:#D9423E"/>
		</linearGradient>
		<path fill="url(#SVGID_2_)" d="M1272.336,3892.058l-16.076-25.973c-0.685-1.108-2.313-2.014-3.615-2.014h-14.212
			c-1.302,0-1.81,0.908-1.13,2.02l15.911,25.961l2.536,4.462c2.138,3.794,4.998,8.888,6.177,10.872
			c1.775,2.985,0.247,5.115,0.935,4.006l9.474-15.304C1273.022,3894.979,1273.022,3893.168,1272.336,3892.058L1272.336,3892.058z
			 M1253.233,3892.082l0.057,0.094l0.004,0.007L1253.233,3892.082z M1254.367,3894.061l0.168,0.296L1254.367,3894.061z
			 M1254.353,3894.025l0.271,0.479L1254.353,3894.025z"/>
		<g enable-background="new    ">
			<path fill="#4E4E4E" d="M1306.167,3890.121h14.065v17.564c-3.819,1.308-8.017,1.961-12.594,1.961
				c-5.023,0-8.905-1.456-11.646-4.368s-4.112-7.066-4.112-12.46c0-5.261,1.5-9.354,4.502-12.282
				c3.001-2.927,7.207-4.391,12.616-4.391c2.051,0,3.986,0.193,5.807,0.58s3.407,0.877,4.759,1.471l-2.786,6.91
				c-2.348-1.159-4.926-1.739-7.734-1.739c-2.571,0-4.559,0.836-5.963,2.508c-1.404,1.671-2.106,4.061-2.106,7.166
				c0,3.047,0.635,5.368,1.906,6.966s3.102,2.396,5.494,2.396c1.308,0,2.511-0.126,3.611-0.379v-5.104h-5.817v-6.799H1306.167z
				 M1351.843,3892.217c0,5.439-1.498,9.629-4.492,12.572s-7.203,4.413-12.627,4.413h-10.543v-32.588h11.278
				c5.23,0,9.27,1.337,12.115,4.012S1351.843,3887.164,1351.843,3892.217L1351.843,3892.217z M1342.703,3892.529
				c0-2.987-0.59-5.201-1.771-6.642s-2.976-2.162-5.383-2.162h-2.563v18.255h1.961c2.675,0,4.637-0.776,5.885-2.329
				S1342.703,3895.724,1342.703,3892.529L1342.703,3892.529z M1368.074,3890.121h14.064v17.564
				c-3.819,1.308-8.018,1.961-12.594,1.961c-5.022,0-8.904-1.456-11.646-4.368c-2.741-2.912-4.112-7.066-4.112-12.46
				c0-5.261,1.501-9.354,4.503-12.282c3.001-2.927,7.207-4.391,12.615-4.391c2.051,0,3.986,0.193,5.807,0.58
				s3.406,0.877,4.759,1.471l-2.786,6.91c-2.348-1.159-4.926-1.739-7.734-1.739c-2.571,0-4.559,0.836-5.963,2.508
				c-1.403,1.671-2.105,4.061-2.105,7.166c0,3.047,0.635,5.368,1.905,6.966s3.102,2.396,5.494,2.396
				c1.308,0,2.511-0.126,3.611-0.379v-5.104h-5.817L1368.074,3890.121L1368.074,3890.121z"/>
		</g>
		<g enable-background="new    ">
			<path fill="#4E4E4E" d="M1404.968,3909.201v-32.588h5.327v28.019h13.798v4.569L1404.968,3909.201L1404.968,3909.201z
				 M1432.077,3909.201l-9.361-24.652h5.528l5.015,14.332c0.861,2.407,1.382,4.354,1.561,5.84h0.178
				c0.134-1.069,0.654-3.017,1.561-5.84l5.016-14.332h5.572l-9.406,24.652H1432.077L1432.077,3909.201z M1447.883,3878.018
				c0-0.936,0.256-1.657,0.769-2.162c0.513-0.505,1.245-0.758,2.196-0.758c0.921,0,1.638,0.253,2.15,0.758
				c0.513,0.505,0.77,1.226,0.77,2.162c0,0.892-0.257,1.594-0.77,2.106s-1.229,0.769-2.15,0.769c-0.951,0-1.684-0.256-2.196-0.769
				S1447.883,3878.909,1447.883,3878.018z M1453.433,3909.201h-5.237v-24.652h5.237V3909.201z M1463.846,3909.201l-9.361-24.652
				h5.528l5.015,14.332c0.861,2.407,1.382,4.354,1.561,5.84h0.178c0.134-1.069,0.654-3.017,1.561-5.84l5.016-14.332h5.572
				l-9.406,24.652H1463.846L1463.846,3909.201z"/>
		</g>
	</g>
</g>
<g>
	<g>
		<path fill="#666666" d="M137.481,60.911h-1.81l-6.916-24.306c-0.576-1.995-1.007-3.634-1.293-4.912
			c-0.23,1.25-0.557,2.687-0.981,4.31c-0.424,1.622-2.74,9.925-6.949,24.908h-1.853l-8.663-31.502h2.307l5.516,20.297
			c0.215,0.819,0.416,1.576,0.604,2.272c0.186,0.698,0.355,1.352,0.506,1.962c0.151,0.61,0.288,1.199,0.409,1.766
			c0.121,0.567,0.234,1.139,0.333,1.713c0.345-1.954,1.078-4.921,2.199-8.899l5.386-19.111h2.435l6.314,21.934
			c0.732,2.529,1.256,4.569,1.572,6.12c0.187-1.033,0.428-2.133,0.722-3.297c0.293-1.162,2.511-9.415,6.648-24.756h2.22
			L137.481,60.911z"/>
		<path fill="#666666" d="M167.93,49.168c0,3.821-0.927,6.806-2.78,8.952c-1.853,2.148-4.409,3.222-7.671,3.222
			c-2.053,0-3.864-0.496-5.43-1.488c-1.565-0.99-2.765-2.413-3.598-4.265c-0.833-1.853-1.249-3.994-1.249-6.422
			c0-3.821,0.927-6.798,2.779-8.93c1.853-2.135,4.395-3.201,7.628-3.201c3.216,0,5.743,1.081,7.573,3.244
			C167.014,42.441,167.93,45.404,167.93,49.168z M149.442,49.168c0,3.219,0.707,5.728,2.122,7.531
			c1.416,1.803,3.417,2.703,6.002,2.703s4.585-0.9,6.001-2.703c1.415-1.803,2.122-4.312,2.122-7.531
			c0-3.232-0.715-5.738-2.143-7.521c-1.429-1.779-3.438-2.672-6.022-2.672c-2.585,0-4.58,0.889-5.98,2.662
			C150.144,43.411,149.442,45.922,149.442,49.168z"/>
		<path fill="#666666" d="M201.47,60.911V45.547c0-2.283-0.446-3.95-1.336-4.998c-0.892-1.048-2.256-1.574-4.094-1.574
			c-2.399,0-4.174,0.662-5.323,1.983c-1.15,1.322-1.724,3.398-1.724,6.225v13.727h-2.176V44.9c0-3.948-1.809-5.925-5.43-5.925
			c-2.456,0-4.245,0.716-5.364,2.144c-1.121,1.43-1.681,3.716-1.681,6.864v12.928h-2.133V37.489h1.765l0.455,3.211h0.128
			c0.646-1.164,1.565-2.065,2.758-2.705c1.193-0.638,2.506-0.959,3.944-0.959c3.691,0,6.061,1.386,7.111,4.159h0.084
			c0.761-1.337,1.786-2.363,3.072-3.081c1.286-0.718,2.747-1.078,4.384-1.078c2.557,0,4.476,0.683,5.754,2.048
			c1.277,1.363,1.918,3.533,1.918,6.506v15.321H201.47z"/>
		<path fill="#666666" d="M218.861,61.342c-3.405,0-6.058-1.048-7.963-3.146c-1.903-2.098-2.854-5.035-2.854-8.813
			c0-3.735,0.918-6.726,2.757-8.975c1.839-2.247,4.317-3.372,7.434-3.372c2.758,0,4.934,0.962,6.529,2.887
			c1.594,1.925,2.39,4.539,2.39,7.842v1.725h-16.87c0.029,3.217,0.779,5.673,2.252,7.368c1.472,1.695,3.58,2.542,6.325,2.542
			c1.336,0,2.509-0.093,3.523-0.279c1.011-0.187,2.294-0.589,3.846-1.207v1.939c-1.322,0.575-2.544,0.967-3.663,1.174
			C221.446,61.238,220.21,61.342,218.861,61.342z M218.235,38.932c-2.255,0-4.066,0.744-5.43,2.23
			c-1.364,1.488-2.162,3.632-2.39,6.433h14.48c0-2.716-0.591-4.837-1.768-6.368C221.949,39.698,220.317,38.932,218.235,38.932z"/>
		<path fill="#666666" d="M248.187,60.911V45.72c0-2.355-0.496-4.068-1.486-5.139c-0.992-1.07-2.529-1.605-4.612-1.605
			c-2.802,0-4.852,0.708-6.152,2.123c-1.3,1.415-1.949,3.709-1.949,6.885v12.928h-2.134V37.489h1.809l0.411,3.211h0.128
			c1.523-2.441,4.23-3.664,8.125-3.664c5.313,0,7.97,2.852,7.97,8.554v15.321H248.187z"/>
	</g>
	<g>
		<path fill="#666666" d="M274.566,60.911h-2.221V31.477h-10.234V29.41H284.8v2.068h-10.234V60.911z"/>
		<path fill="#666666" d="M296.63,61.342c-3.405,0-6.058-1.048-7.961-3.146c-1.904-2.098-2.856-5.035-2.856-8.813
			c0-3.735,0.919-6.726,2.758-8.975c1.84-2.247,4.317-3.372,7.433-3.372c2.758,0,4.935,0.962,6.531,2.887
			c1.594,1.925,2.391,4.539,2.391,7.842v1.725h-16.873c0.03,3.217,0.779,5.673,2.252,7.368c1.471,1.695,3.58,2.542,6.324,2.542
			c1.336,0,2.511-0.093,3.522-0.279c1.014-0.187,2.297-0.589,3.848-1.207v1.939c-1.321,0.575-2.542,0.967-3.664,1.174
			C299.216,61.238,297.982,61.342,296.63,61.342z M296.005,38.932c-2.255,0-4.063,0.744-5.428,2.23
			c-1.367,1.488-2.163,3.632-2.393,6.433h14.48c0-2.716-0.589-4.837-1.766-6.368C299.718,39.698,298.09,38.932,296.005,38.932z"/>
		<path fill="#666666" d="M318.976,61.342c-3.347,0-5.967-1.057-7.864-3.168c-1.895-2.111-2.842-5.056-2.842-8.834
			c0-3.879,0.983-6.899,2.95-9.06c1.969-2.162,4.662-3.244,8.082-3.244c2.025,0,3.964,0.353,5.818,1.056l-0.582,1.896
			c-2.026-0.675-3.786-1.013-5.28-1.013c-2.873,0-5.048,0.889-6.527,2.662c-1.48,1.774-2.219,4.328-2.219,7.66
			c0,3.161,0.74,5.634,2.219,7.423c1.479,1.788,3.547,2.681,6.205,2.681c2.126,0,4.1-0.38,5.924-1.141v1.982
			C323.364,60.976,321.405,61.342,318.976,61.342z"/>
		<path fill="#666666" d="M346.041,60.911V45.72c0-2.355-0.496-4.068-1.486-5.139c-0.991-1.07-2.529-1.605-4.612-1.605
			c-2.801,0-4.851,0.708-6.151,2.123c-1.3,1.415-1.952,3.709-1.952,6.885v12.928h-2.132V27.385h2.132V38.05l-0.106,2.995h0.15
			c0.877-1.408,1.983-2.428,3.319-3.06c1.336-0.632,2.995-0.949,4.979-0.949c5.315,0,7.972,2.852,7.972,8.554v15.321H346.041z"/>
		<path fill="#666666" d="M382.35,60.911V45.547c0-2.283-0.445-3.95-1.335-4.998c-0.891-1.048-2.256-1.574-4.095-1.574
			c-2.398,0-4.171,0.662-5.32,1.983c-1.15,1.322-1.725,3.398-1.725,6.225v13.727h-2.176V44.9c0-3.948-1.811-5.925-5.429-5.925
			c-2.458,0-4.246,0.716-5.367,2.144c-1.119,1.43-1.679,3.716-1.679,6.864v12.928h-2.133V37.489h1.766l0.453,3.211h0.129
			c0.647-1.164,1.566-2.065,2.758-2.705c1.192-0.638,2.508-0.959,3.942-0.959c3.693,0,6.063,1.386,7.112,4.159h0.086
			c0.761-1.337,1.786-2.363,3.071-3.081c1.284-0.718,2.747-1.078,4.385-1.078c2.555,0,4.474,0.683,5.751,2.048
			c1.281,1.363,1.919,3.533,1.919,6.506v15.321H382.35z"/>
		<path fill="#666666" d="M404.503,60.911l-0.539-3.707h-0.171c-1.179,1.509-2.39,2.576-3.632,3.201
			c-1.242,0.624-2.712,0.937-4.407,0.937c-2.299,0-4.086-0.591-5.365-1.768c-1.279-1.177-1.919-2.808-1.919-4.89
			c0-2.284,0.952-4.058,2.856-5.322c1.902-1.264,4.659-1.932,8.264-2.005l4.46-0.128v-1.552c0-2.225-0.451-3.907-1.358-5.041
			c-0.904-1.134-2.362-1.703-4.373-1.703c-2.169,0-4.418,0.604-6.745,1.811l-0.796-1.853c2.571-1.207,5.113-1.811,7.629-1.811
			c2.569,0,4.491,0.668,5.763,2.005c1.27,1.335,1.907,3.418,1.907,6.247v15.58H404.503z M395.884,59.402
			c2.499,0,4.471-0.713,5.914-2.143c1.444-1.429,2.166-3.416,2.166-5.959v-2.305l-4.093,0.172c-3.29,0.159-5.635,0.672-7.035,1.541
			c-1.402,0.869-2.101,2.222-2.101,4.062c0,1.466,0.449,2.604,1.346,3.414C392.979,58.997,394.246,59.402,395.884,59.402z"/>
		<path fill="#666666" d="M413.986,50.632l11.959-13.143h2.583l-9.221,9.998l10.018,13.424h-2.562l-8.9-11.83l-3.835,3.491v8.339
			h-2.132V27.385h2.132v16.806l-0.151,6.441H413.986z"/>
		<path fill="#666666" d="M440.944,61.342c-3.405,0-6.058-1.048-7.964-3.146c-1.902-2.098-2.855-5.035-2.855-8.813
			c0-3.735,0.919-6.726,2.758-8.975c1.839-2.247,4.317-3.372,7.434-3.372c2.758,0,4.934,0.962,6.528,2.887
			c1.594,1.925,2.391,4.539,2.391,7.842v1.725h-16.871c0.028,3.217,0.779,5.673,2.252,7.368s3.58,2.542,6.325,2.542
			c1.335,0,2.51-0.093,3.523-0.279c1.011-0.187,2.294-0.589,3.846-1.207v1.939c-1.322,0.575-2.544,0.967-3.664,1.174
			C443.53,61.238,442.292,61.342,440.944,61.342z M440.318,38.932c-2.255,0-4.066,0.744-5.431,2.23
			c-1.363,1.488-2.163,3.632-2.39,6.433h14.48c0-2.716-0.591-4.837-1.768-6.368C444.032,39.698,442.4,38.932,440.318,38.932z"/>
		<path fill="#666666" d="M463.158,37.037c0.992,0,2.055,0.101,3.191,0.302l-0.41,2.048c-0.977-0.245-1.992-0.366-3.038-0.366
			c-1.998,0-3.635,0.847-4.912,2.542c-1.28,1.695-1.918,3.834-1.918,6.421v12.928h-2.133V37.489h1.809l0.216,4.224h0.151
			c0.962-1.725,1.99-2.934,3.082-3.632C460.286,37.387,461.608,37.037,463.158,37.037z"/>
		<path fill="#666666" d="M483.869,54.813c0,2.098-0.799,3.71-2.393,4.837c-1.594,1.128-3.856,1.692-6.786,1.692
			c-3.131,0-5.617-0.481-7.457-1.445v-2.305c2.357,1.178,4.841,1.766,7.457,1.766c2.312,0,4.068-0.383,5.267-1.151
			c1.201-0.769,1.8-1.793,1.8-3.071c0-1.178-0.478-2.169-1.433-2.974c-0.955-0.804-2.524-1.595-4.706-2.37
			c-2.342-0.847-3.987-1.577-4.935-2.188c-0.949-0.61-1.662-1.3-2.145-2.068c-0.481-0.769-0.721-1.706-0.721-2.812
			c0-1.751,0.736-3.138,2.207-4.158c1.475-1.02,3.531-1.531,6.174-1.531c2.528,0,4.927,0.474,7.198,1.423l-0.798,1.939
			c-2.299-0.949-4.432-1.423-6.4-1.423c-1.91,0-3.426,0.317-4.547,0.949c-1.12,0.633-1.68,1.509-1.68,2.628
			c0,1.222,0.434,2.199,1.305,2.93c0.867,0.733,2.567,1.552,5.094,2.456c2.113,0.761,3.649,1.448,4.611,2.058
			c0.964,0.612,1.685,1.303,2.166,2.08C483.627,52.853,483.869,53.765,483.869,54.813z"/>
	</g>
	<g>
		<g>
			<g>
				<rect x="25.307" y="24.82" fill="#4285F4" width="11.27" height="36.589"/>
				<rect x="59.024" y="24.82" fill="#00BFA5" width="11.337" height="36.589"/>
				<polygon fill="#1CE9B6" points="59.09,61.409 70.36,61.409 53.504,30.362 42.233,30.362 				"/>
			</g>
			<polygon fill="#4FC3F7" points="36.577,61.409 25.307,61.409 42.164,30.362 53.433,30.362 			"/>
		</g>
		<g>
			<path fill="#4285F4" d="M18.681,66.961V19.397h12.336v-7.209H14.304c-1.564,0-2.843,1.281-2.843,2.845v55.865
				c0,1.564,1.279,3.143,2.843,3.143h16.712v-7.08H18.681z"/>
			<path fill="#00BFA5" d="M76.987,66.961V19.397H64.653v-7.209h16.71c1.563,0,2.843,1.281,2.843,2.845v55.865
				c0,1.564-1.28,3.143-2.843,3.143h-16.71v-7.08H76.987z"/>
		</g>
	</g>
</g>
</svg>
