<?xml version="1.0" encoding="utf-8"?>
<!-- Generator: Adobe Illustrator 17.0.0, SVG Export Plug-In . SVG Version: 6.00 Build 0)  -->
<!DOCTYPE svg PUBLIC "-//W3C//DTD SVG 1.1//EN" "http://www.w3.org/Graphics/SVG/1.1/DTD/svg11.dtd">
<svg version="1.1" id="Layer_1" xmlns="http://www.w3.org/2000/svg" xmlns:xlink="http://www.w3.org/1999/xlink" x="0px" y="0px"
	 width="185px" height="188px" viewBox="0 0 185 188" enable-background="new 0 0 185 188" xml:space="preserve">
<g>
	<g>
		<g>
			<g>
				<rect x="10.066" y="14.181" fill="#4285F4" width="8.195" height="26.6"/>
				<rect x="34.578" y="14.181" fill="#00BFA5" width="8.24" height="26.6"/>
				<polygon fill="#1CE9B6" points="34.624,40.782 42.818,40.782 30.565,18.213 22.369,18.213 				"/>
			</g>
			<polygon fill="#4FC3F7" points="18.26,40.782 10.066,40.782 22.321,18.213 30.514,18.213 			"/>
		</g>
		<g>
			<path fill="#4285F4" d="M5.248,44.817V10.241h8.967V5H2.068C0.932,5,0,5.931,0,7.066V47.68c0,1.135,0.932,2.286,2.068,2.286
				h12.147v-5.149H5.248z"/>
			<path fill="#00BFA5" d="M47.635,44.817V10.241h-8.967V5h12.15c1.134,0,2.066,0.931,2.066,2.066V47.68
				c0,1.135-0.932,2.286-2.066,2.286h-12.15v-5.149H47.635z"/>
		</g>
	</g>
	<g>
		<path fill="#666666" d="M74.252,20.281l0.459,2.317l0.06,0.012l0.572-2.329l3.202-10.855h1.176l3.202,10.855l0.551,2.339
			l0.063-0.01l0.487-2.329L86.76,9.425h1.269l-3.89,15.141h-1.173l-3.4-11.615l-0.396-1.588h-0.063l-0.385,1.588l-3.431,11.615
			h-1.184L70.216,9.425h1.28L74.252,20.281z"/>
		<path fill="#666666" d="M89.318,18.775c0-1.658,0.452-3.018,1.363-4.078c0.908-1.06,2.109-1.59,3.606-1.59
			c1.506,0,2.711,0.53,3.619,1.59c0.909,1.061,1.365,2.421,1.365,4.078v0.343c0,1.661-0.456,3.023-1.359,4.08
			c-0.906,1.056-2.104,1.585-3.604,1.585c-1.512,0-2.72-0.528-3.627-1.585c-0.91-1.057-1.363-2.418-1.363-4.08V18.775z
			 M90.566,19.112c0,1.303,0.328,2.393,0.985,3.283c0.662,0.886,1.58,1.327,2.756,1.327c1.159,0,2.069-0.441,2.731-1.327
			c0.66-0.89,0.994-1.979,0.994-3.283V18.77c0-1.282-0.334-2.368-1.001-3.262c-0.662-0.893-1.578-1.341-2.745-1.341
			c-1.162,0-2.073,0.448-2.735,1.341c-0.657,0.894-0.985,1.98-0.985,3.262V19.112z"/>
		<path fill="#666666" d="M102.916,13.316l0.117,1.861c0.361-0.66,0.84-1.168,1.44-1.529c0.6-0.36,1.316-0.541,2.147-0.541
			c0.858,0,1.577,0.209,2.157,0.626c0.58,0.413,0.994,1.049,1.241,1.901c0.34-0.792,0.826-1.407,1.451-1.857
			c0.628-0.445,1.391-0.67,2.292-0.67c1.202,0,2.128,0.4,2.778,1.194c0.651,0.799,0.979,2.032,0.979,3.703v6.562h-1.248V17.97
			c0-1.389-0.245-2.37-0.734-2.945c-0.49-0.569-1.17-0.857-2.043-0.857c-0.965,0-1.71,0.3-2.237,0.907
			c-0.527,0.604-0.851,1.376-0.975,2.322c0,0.05,0.001,0.12,0.004,0.209c0.004,0.092,0.005,0.155,0.005,0.197v6.763h-1.256V17.97
			c0-1.36-0.25-2.335-0.746-2.923c-0.497-0.587-1.178-0.879-2.043-0.879c-0.88,0-1.577,0.225-2.093,0.671
			c-0.521,0.45-0.881,1.054-1.087,1.807v7.921h-1.257v-11.25H102.916z"/>
		<path fill="#666666" d="M124.96,24.783c-1.407,0-2.574-0.519-3.507-1.559c-0.934-1.039-1.398-2.357-1.398-3.95v-0.572
			c0-1.608,0.461-2.944,1.387-4.005c0.925-1.06,2.048-1.59,3.362-1.59c1.382,0,2.467,0.439,3.256,1.312
			c0.791,0.873,1.186,2.034,1.186,3.491v1.063h-7.944v0.299c0,1.266,0.336,2.324,1.009,3.174c0.67,0.853,1.556,1.276,2.65,1.276
			c0.776,0,1.438-0.106,1.986-0.321c0.546-0.216,1.016-0.523,1.406-0.927l0.529,0.852c-0.425,0.447-0.959,0.8-1.607,1.065
			C126.626,24.652,125.856,24.783,124.96,24.783z M124.803,14.168c-0.923,0-1.692,0.351-2.317,1.052
			c-0.623,0.7-0.985,1.583-1.092,2.64l0.022,0.05h6.593V17.6c0-0.975-0.29-1.79-0.865-2.446
			C126.57,14.494,125.788,14.168,124.803,14.168z"/>
		<path fill="#666666" d="M132.81,13.316l0.113,1.964c0.36-0.692,0.85-1.228,1.461-1.606c0.615-0.377,1.342-0.567,2.179-0.567
			c1.222,0,2.148,0.374,2.788,1.119c0.636,0.745,0.957,1.906,0.957,3.486v6.854h-1.25V17.71c0-1.289-0.239-2.203-0.724-2.739
			c-0.481-0.535-1.164-0.802-2.051-0.802c-0.873,0-1.584,0.232-2.135,0.692c-0.553,0.465-0.95,1.074-1.193,1.839v7.867h-1.248
			v-11.25H132.81z"/>
		<path fill="#666666" d="M81.761,31.995h-5.212v14.081h-1.248V31.995h-5.208v-1.059h11.668V31.995z"/>
		<path fill="#666666" d="M87.071,46.291c-1.406,0-2.578-0.519-3.506-1.558c-0.934-1.038-1.402-2.356-1.402-3.951V40.21
			c0-1.607,0.466-2.943,1.391-4.004c0.923-1.059,2.043-1.59,3.362-1.59c1.377,0,2.463,0.438,3.253,1.311
			c0.792,0.873,1.184,2.036,1.184,3.491v1.061H83.41v0.302c0,1.267,0.34,2.325,1.012,3.174c0.671,0.854,1.554,1.277,2.649,1.277
			c0.778,0,1.438-0.106,1.987-0.321c0.548-0.214,1.018-0.523,1.402-0.925l0.531,0.85c-0.421,0.447-0.956,0.801-1.607,1.065
			C88.738,46.162,87.966,46.291,87.071,46.291z M86.917,35.676c-0.923,0-1.697,0.351-2.318,1.053
			c-0.626,0.701-0.99,1.58-1.092,2.639l0.022,0.05h6.59v-0.309c0-0.977-0.287-1.79-0.862-2.445
			C88.679,36.005,87.902,35.676,86.917,35.676z"/>
		<path fill="#666666" d="M97.991,45.231c0.823,0,1.55-0.235,2.183-0.703c0.629-0.468,0.943-1.123,0.943-1.957h1.103l0.021,0.064
			c0.035,1.038-0.382,1.907-1.248,2.607c-0.866,0.701-1.87,1.05-3.003,1.05c-1.535,0-2.716-0.524-3.554-1.573
			c-0.834-1.05-1.252-2.403-1.252-4.052v-0.435c0-1.636,0.419-2.982,1.257-4.036c0.841-1.052,2.017-1.58,3.537-1.58
			c1.233,0,2.26,0.365,3.082,1.092c0.821,0.728,1.218,1.687,1.189,2.87l-0.021,0.064h-1.113c0-0.902-0.302-1.62-0.91-2.159
			c-0.605-0.536-1.349-0.807-2.228-0.807c-1.209,0-2.101,0.434-2.677,1.294c-0.579,0.86-0.872,1.947-0.872,3.255v0.435
			c0,1.331,0.29,2.425,0.867,3.283C95.87,44.805,96.768,45.231,97.991,45.231z"/>
		<path fill="#666666" d="M106.1,36.747c0.374-0.67,0.873-1.194,1.498-1.569c0.622-0.374,1.35-0.562,2.181-0.562
			c1.186,0,2.097,0.369,2.728,1.103c0.636,0.736,0.953,1.872,0.953,3.421v6.935h-1.248v-6.972c0-1.22-0.242-2.098-0.723-2.629
			c-0.481-0.531-1.146-0.798-1.99-0.798c-0.852,0-1.563,0.225-2.136,0.671c-0.574,0.451-0.995,1.048-1.264,1.788v7.941h-1.247
			V29.854h1.247V36.747z"/>
		<path fill="#666666" d="M117.754,34.826l0.117,1.858c0.361-0.657,0.839-1.166,1.44-1.527c0.597-0.36,1.312-0.54,2.147-0.54
			c0.858,0,1.578,0.21,2.157,0.623c0.579,0.416,0.992,1.051,1.241,1.904c0.34-0.792,0.821-1.408,1.451-1.856
			c0.629-0.445,1.39-0.67,2.291-0.67c1.202,0,2.128,0.4,2.778,1.195c0.648,0.798,0.978,2.031,0.978,3.702v6.562h-1.251V39.48
			c0-1.387-0.241-2.37-0.731-2.945c-0.49-0.572-1.169-0.858-2.042-0.858c-0.965,0-1.711,0.302-2.237,0.907
			c-0.527,0.605-0.852,1.377-0.975,2.322c0,0.05,0.001,0.12,0.005,0.209c0.004,0.092,0.007,0.155,0.007,0.198v6.762h-1.262V39.48
			c0-1.36-0.247-2.334-0.741-2.923c-0.498-0.588-1.179-0.88-2.044-0.88c-0.881,0-1.578,0.225-2.094,0.671
			c-0.519,0.451-0.882,1.054-1.087,1.809v7.92h-1.262v-11.25H117.754z"/>
		<path fill="#666666" d="M142.697,46.076c-0.081-0.381-0.141-0.714-0.177-0.989c-0.035-0.275-0.049-0.557-0.049-0.84
			c-0.417,0.585-0.973,1.077-1.665,1.467c-0.692,0.386-1.473,0.579-2.338,0.579c-1.097,0-1.948-0.289-2.554-0.873
			c-0.607-0.583-0.909-1.36-0.909-2.339c0-1.039,0.445-1.873,1.344-2.494c0.899-0.626,2.111-0.936,3.635-0.936h2.487v-1.392
			c0-0.806-0.259-1.435-0.775-1.894c-0.516-0.456-1.239-0.686-2.169-0.686c-0.865,0-1.585,0.219-2.157,0.653
			c-0.573,0.438-0.857,0.972-0.857,1.605l-1.145-0.011l-0.022-0.063c-0.043-0.838,0.342-1.589,1.15-2.253
			c0.806-0.661,1.833-0.992,3.083-0.992c1.24,0,2.237,0.315,2.994,0.948c0.756,0.628,1.134,1.532,1.134,2.714v5.529
			c0,0.396,0.023,0.782,0.066,1.155c0.044,0.375,0.12,0.746,0.223,1.113H142.697z M138.612,45.189c0.894,0,1.686-0.206,2.372-0.627
			c0.686-0.421,1.18-0.956,1.487-1.607v-2.349h-2.509c-1.126,0-2.029,0.237-2.708,0.721c-0.675,0.481-1.012,1.08-1.012,1.794
			c0,0.61,0.209,1.108,0.63,1.494C137.289,44.997,137.87,45.189,138.612,45.189z"/>
		<path fill="#666666" d="M149.715,40.585h-1.434v5.49h-1.248V29.854h1.248v9.671h1.31l4.179-4.699h1.457l0.021,0.05l-4.502,5.069
			l4.967,6.079l-0.031,0.053h-1.423L149.715,40.585z"/>
		<path fill="#666666" d="M161.497,46.291c-1.407,0-2.575-0.519-3.508-1.558c-0.932-1.038-1.402-2.356-1.402-3.951V40.21
			c0-1.607,0.466-2.943,1.393-4.004c0.926-1.059,2.043-1.59,3.362-1.59c1.381,0,2.465,0.438,3.253,1.311
			c0.793,0.873,1.189,2.036,1.189,3.491v1.061h-7.945v0.302c0,1.267,0.336,2.325,1.008,3.174c0.671,0.854,1.556,1.277,2.651,1.277
			c0.776,0,1.437-0.106,1.986-0.321c0.546-0.214,1.018-0.523,1.406-0.925l0.53,0.85c-0.424,0.447-0.959,0.801-1.608,1.065
			C163.162,46.162,162.389,46.291,161.497,46.291z M161.341,35.676c-0.923,0-1.695,0.351-2.319,1.053
			c-0.624,0.701-0.989,1.58-1.092,2.639l0.021,0.05h6.592v-0.309c0-0.977-0.287-1.79-0.864-2.445
			C163.104,36.005,162.326,35.676,161.341,35.676z"/>
		<path fill="#666666" d="M173.423,35.895l-0.928-0.062c-0.782,0-1.425,0.221-1.927,0.662c-0.503,0.439-0.862,1.045-1.076,1.814
			v7.767h-1.247v-11.25h1.091l0.156,1.868v0.128c0.325-0.692,0.763-1.233,1.31-1.622c0.548-0.388,1.198-0.583,1.954-0.583
			c0.159,0,0.313,0.013,0.462,0.037c0.152,0.025,0.273,0.048,0.369,0.077L173.423,35.895z"/>
		<path fill="#666666" d="M182.231,43.208c0-0.524-0.217-0.982-0.652-1.378c-0.431-0.395-1.214-0.715-2.345-0.967
			c-1.344-0.29-2.338-0.674-2.977-1.152c-0.643-0.481-0.963-1.155-0.963-2.027c0-0.859,0.363-1.584,1.087-2.179
			c0.724-0.595,1.682-0.889,2.875-0.889c1.268,0,2.271,0.313,3.014,0.943c0.741,0.624,1.095,1.411,1.06,2.354l-0.018,0.06h-1.156
			c0-0.615-0.264-1.152-0.786-1.611c-0.524-0.456-1.228-0.686-2.115-0.686c-0.909,0-1.588,0.196-2.045,0.586
			c-0.452,0.39-0.68,0.845-0.68,1.369c0,0.515,0.195,0.945,0.588,1.282c0.393,0.338,1.172,0.637,2.346,0.889
			c1.334,0.303,2.338,0.709,3.004,1.226c0.666,0.522,0.999,1.226,0.999,2.116c0,0.94-0.38,1.696-1.141,2.276
			c-0.759,0.581-1.76,0.871-3.008,0.871c-1.368,0-2.44-0.325-3.221-0.975c-0.778-0.653-1.147-1.428-1.104-2.328l0.019-0.064h1.143
			c0.05,0.808,0.382,1.392,0.996,1.759c0.61,0.366,1.333,0.548,2.167,0.548c0.901,0,1.612-0.197,2.132-0.592
			C181.97,44.248,182.231,43.769,182.231,43.208z"/>
	</g>
</g>
<g>
	<g>
		<g>
			<g>
				<rect x="10.066" y="76.181" fill="#7F7E7E" width="8.195" height="26.6"/>
				<rect x="34.578" y="76.181" fill="#7F7E7E" width="8.24" height="26.6"/>
				<polygon fill="#7F7E7E" points="34.624,102.782 42.818,102.782 30.565,80.213 22.369,80.213 				"/>
			</g>
			<polygon fill="#6F7577" points="18.26,102.782 10.066,102.782 22.321,80.213 30.514,80.213 			"/>
		</g>
		<g>
			<path fill="#666666" d="M5.248,106.817V72.241h8.967V67H2.068C0.932,67,0,67.931,0,69.066v40.614
				c0,1.135,0.932,2.286,2.068,2.286h12.147v-5.149H5.248z"/>
			<path fill="#666666" d="M47.635,106.817V72.241h-8.967V67h12.15c1.134,0,2.066,0.931,2.066,2.066v40.614
				c0,1.135-0.932,2.286-2.066,2.286h-12.15v-5.149H47.635z"/>
		</g>
	</g>
	<g>
		<path fill="#666666" d="M74.252,82.281l0.459,2.317l0.06,0.012l0.572-2.329l3.202-10.855h1.176l3.202,10.855l0.551,2.339
			l0.063-0.01l0.487-2.329l2.735-10.855h1.269l-3.89,15.141h-1.173l-3.4-11.615l-0.396-1.588h-0.063l-0.385,1.588l-3.431,11.615
			h-1.184l-3.891-15.141h1.28L74.252,82.281z"/>
		<path fill="#666666" d="M89.318,80.775c0-1.658,0.452-3.018,1.363-4.078c0.908-1.06,2.109-1.59,3.606-1.59
			c1.506,0,2.711,0.53,3.619,1.59c0.909,1.061,1.365,2.421,1.365,4.078v0.343c0,1.661-0.456,3.023-1.359,4.08
			c-0.906,1.056-2.104,1.585-3.604,1.585c-1.512,0-2.72-0.528-3.627-1.585c-0.91-1.057-1.363-2.418-1.363-4.08V80.775z
			 M90.566,81.112c0,1.303,0.328,2.393,0.985,3.283c0.662,0.886,1.58,1.327,2.756,1.327c1.159,0,2.069-0.441,2.731-1.327
			c0.66-0.89,0.994-1.979,0.994-3.283V80.77c0-1.282-0.334-2.368-1.001-3.262c-0.662-0.893-1.578-1.341-2.745-1.341
			c-1.162,0-2.073,0.448-2.735,1.341c-0.657,0.894-0.985,1.98-0.985,3.262V81.112z"/>
		<path fill="#666666" d="M102.916,75.316l0.117,1.861c0.361-0.66,0.84-1.168,1.44-1.529c0.6-0.36,1.316-0.541,2.147-0.541
			c0.858,0,1.577,0.209,2.157,0.626c0.58,0.413,0.994,1.049,1.241,1.901c0.34-0.792,0.826-1.407,1.451-1.857
			c0.628-0.445,1.391-0.67,2.292-0.67c1.202,0,2.128,0.4,2.778,1.194c0.651,0.799,0.979,2.032,0.979,3.703v6.562h-1.248V79.97
			c0-1.389-0.245-2.37-0.734-2.945c-0.49-0.569-1.17-0.857-2.043-0.857c-0.965,0-1.71,0.3-2.237,0.907
			c-0.527,0.604-0.851,1.376-0.975,2.322c0,0.05,0.001,0.12,0.004,0.209c0.004,0.092,0.005,0.155,0.005,0.197v6.763h-1.256V79.97
			c0-1.36-0.25-2.335-0.746-2.923c-0.497-0.587-1.178-0.879-2.043-0.879c-0.88,0-1.577,0.225-2.093,0.671
			c-0.521,0.45-0.881,1.054-1.087,1.807v7.921h-1.257v-11.25H102.916z"/>
		<path fill="#666666" d="M124.96,86.783c-1.407,0-2.574-0.519-3.507-1.559c-0.934-1.039-1.398-2.357-1.398-3.95v-0.572
			c0-1.608,0.461-2.944,1.387-4.005c0.925-1.06,2.048-1.59,3.362-1.59c1.382,0,2.467,0.439,3.256,1.312
			c0.791,0.873,1.186,2.034,1.186,3.491v1.063h-7.944v0.299c0,1.266,0.336,2.324,1.009,3.174c0.67,0.853,1.556,1.276,2.65,1.276
			c0.776,0,1.438-0.106,1.986-0.321c0.546-0.216,1.016-0.523,1.406-0.927l0.529,0.852c-0.425,0.447-0.959,0.8-1.607,1.065
			C126.626,86.652,125.856,86.783,124.96,86.783z M124.803,76.168c-0.923,0-1.692,0.351-2.317,1.052
			c-0.623,0.7-0.985,1.583-1.092,2.64l0.022,0.05h6.593V79.6c0-0.975-0.29-1.79-0.865-2.446
			C126.57,76.494,125.788,76.168,124.803,76.168z"/>
		<path fill="#666666" d="M132.81,75.316l0.113,1.964c0.36-0.692,0.85-1.228,1.461-1.606c0.615-0.377,1.342-0.567,2.179-0.567
			c1.222,0,2.148,0.374,2.788,1.119c0.636,0.745,0.957,1.906,0.957,3.486v6.854h-1.25V79.71c0-1.289-0.239-2.203-0.724-2.739
			c-0.481-0.535-1.164-0.802-2.051-0.802c-0.873,0-1.584,0.232-2.135,0.692c-0.553,0.465-0.95,1.074-1.193,1.839v7.867h-1.248
			v-11.25H132.81z"/>
		<path fill="#666666" d="M81.761,93.995h-5.212v14.081h-1.248V93.995h-5.208v-1.059h11.668V93.995z"/>
		<path fill="#666666" d="M87.071,108.291c-1.406,0-2.578-0.519-3.506-1.558c-0.934-1.038-1.402-2.356-1.402-3.951v-0.572
			c0-1.607,0.466-2.943,1.391-4.004c0.923-1.059,2.043-1.59,3.362-1.59c1.377,0,2.463,0.438,3.253,1.311
			c0.792,0.873,1.184,2.036,1.184,3.491v1.061H83.41v0.302c0,1.267,0.34,2.325,1.012,3.174c0.671,0.854,1.554,1.277,2.649,1.277
			c0.778,0,1.438-0.106,1.987-0.321c0.548-0.214,1.018-0.523,1.402-0.925l0.531,0.85c-0.421,0.447-0.956,0.801-1.607,1.065
			C88.738,108.162,87.966,108.291,87.071,108.291z M86.917,97.676c-0.923,0-1.697,0.351-2.318,1.053
			c-0.626,0.701-0.99,1.58-1.092,2.639l0.022,0.05h6.59v-0.309c0-0.977-0.287-1.79-0.862-2.445
			C88.679,98.005,87.902,97.676,86.917,97.676z"/>
		<path fill="#666666" d="M97.991,107.231c0.823,0,1.55-0.235,2.183-0.703c0.629-0.468,0.943-1.123,0.943-1.957h1.103l0.021,0.064
			c0.035,1.038-0.382,1.907-1.248,2.607c-0.866,0.701-1.87,1.05-3.003,1.05c-1.535,0-2.716-0.524-3.554-1.573
			c-0.834-1.05-1.252-2.403-1.252-4.052v-0.435c0-1.636,0.419-2.982,1.257-4.036c0.841-1.052,2.017-1.58,3.537-1.58
			c1.233,0,2.26,0.365,3.082,1.092c0.821,0.728,1.218,1.687,1.189,2.869l-0.021,0.064h-1.113c0-0.902-0.302-1.62-0.91-2.159
			c-0.605-0.536-1.349-0.807-2.228-0.807c-1.209,0-2.101,0.434-2.677,1.294c-0.579,0.86-0.872,1.947-0.872,3.255v0.435
			c0,1.331,0.29,2.425,0.867,3.283C95.87,106.805,96.768,107.231,97.991,107.231z"/>
		<path fill="#666666" d="M106.1,98.747c0.374-0.67,0.873-1.194,1.498-1.569c0.622-0.374,1.35-0.562,2.181-0.562
			c1.186,0,2.097,0.369,2.728,1.103c0.636,0.736,0.953,1.872,0.953,3.421v6.935h-1.248v-6.972c0-1.22-0.242-2.098-0.723-2.629
			c-0.481-0.531-1.146-0.798-1.99-0.798c-0.852,0-1.563,0.225-2.136,0.671c-0.574,0.451-0.995,1.048-1.264,1.788v7.941h-1.247
			V91.854h1.247V98.747z"/>
		<path fill="#666666" d="M117.754,96.826l0.117,1.858c0.361-0.657,0.839-1.166,1.44-1.527c0.597-0.36,1.312-0.54,2.147-0.54
			c0.858,0,1.578,0.21,2.157,0.623c0.579,0.416,0.992,1.051,1.241,1.904c0.34-0.792,0.821-1.408,1.451-1.856
			c0.629-0.445,1.39-0.67,2.291-0.67c1.202,0,2.128,0.4,2.778,1.195c0.648,0.798,0.978,2.031,0.978,3.702v6.562h-1.251v-6.596
			c0-1.387-0.241-2.37-0.731-2.945c-0.49-0.572-1.169-0.858-2.042-0.858c-0.965,0-1.711,0.302-2.237,0.907
			c-0.527,0.605-0.852,1.377-0.975,2.322c0,0.05,0.001,0.12,0.005,0.209c0.004,0.092,0.007,0.155,0.007,0.198v6.762h-1.262v-6.596
			c0-1.36-0.247-2.334-0.741-2.923c-0.498-0.588-1.179-0.88-2.044-0.88c-0.881,0-1.578,0.225-2.094,0.671
			c-0.519,0.451-0.882,1.054-1.087,1.809v7.92h-1.262v-11.25H117.754z"/>
		<path fill="#666666" d="M142.697,108.076c-0.081-0.381-0.141-0.714-0.177-0.989c-0.035-0.275-0.049-0.557-0.049-0.84
			c-0.417,0.585-0.973,1.077-1.665,1.467c-0.692,0.386-1.473,0.579-2.338,0.579c-1.097,0-1.948-0.289-2.554-0.873
			c-0.607-0.583-0.909-1.36-0.909-2.339c0-1.039,0.445-1.873,1.344-2.494c0.899-0.626,2.111-0.936,3.635-0.936h2.487v-1.392
			c0-0.806-0.259-1.435-0.775-1.894c-0.516-0.456-1.239-0.686-2.169-0.686c-0.865,0-1.585,0.219-2.157,0.653
			c-0.573,0.438-0.857,0.972-0.857,1.605l-1.145-0.011l-0.022-0.063c-0.043-0.838,0.342-1.589,1.15-2.253
			c0.806-0.661,1.833-0.992,3.083-0.992c1.24,0,2.237,0.315,2.994,0.948c0.756,0.628,1.134,1.532,1.134,2.714v5.529
			c0,0.396,0.023,0.782,0.066,1.155c0.044,0.375,0.12,0.746,0.223,1.113H142.697z M138.612,107.189c0.894,0,1.686-0.206,2.372-0.627
			c0.686-0.421,1.18-0.956,1.487-1.607v-2.349h-2.509c-1.126,0-2.029,0.237-2.708,0.721c-0.675,0.481-1.012,1.08-1.012,1.794
			c0,0.61,0.209,1.108,0.63,1.494C137.289,106.997,137.87,107.189,138.612,107.189z"/>
		<path fill="#666666" d="M149.715,102.585h-1.434v5.49h-1.248V91.854h1.248v9.671h1.31l4.179-4.699h1.457l0.021,0.05l-4.502,5.069
			l4.967,6.079l-0.031,0.053h-1.423L149.715,102.585z"/>
		<path fill="#666666" d="M161.497,108.291c-1.407,0-2.575-0.519-3.508-1.558c-0.932-1.038-1.402-2.356-1.402-3.951v-0.572
			c0-1.607,0.466-2.943,1.393-4.004c0.926-1.059,2.043-1.59,3.362-1.59c1.381,0,2.465,0.438,3.253,1.311
			c0.793,0.873,1.189,2.036,1.189,3.491v1.061h-7.945v0.302c0,1.267,0.336,2.325,1.008,3.174c0.671,0.854,1.556,1.277,2.651,1.277
			c0.776,0,1.437-0.106,1.986-0.321c0.546-0.214,1.018-0.523,1.406-0.925l0.53,0.85c-0.424,0.447-0.959,0.801-1.608,1.065
			C163.162,108.162,162.389,108.291,161.497,108.291z M161.341,97.676c-0.923,0-1.695,0.351-2.319,1.053
			c-0.624,0.701-0.989,1.58-1.092,2.639l0.021,0.05h6.592v-0.309c0-0.977-0.287-1.79-0.864-2.445
			C163.104,98.005,162.326,97.676,161.341,97.676z"/>
		<path fill="#666666" d="M173.423,97.895l-0.928-0.062c-0.782,0-1.425,0.221-1.927,0.662c-0.503,0.439-0.862,1.045-1.076,1.814
			v7.767h-1.247v-11.25h1.091l0.156,1.868v0.128c0.325-0.692,0.763-1.233,1.31-1.622c0.548-0.388,1.198-0.583,1.954-0.583
			c0.159,0,0.313,0.013,0.462,0.037c0.152,0.025,0.273,0.048,0.369,0.077L173.423,97.895z"/>
		<path fill="#666666" d="M182.231,105.208c0-0.524-0.217-0.982-0.652-1.378c-0.431-0.395-1.214-0.715-2.345-0.967
			c-1.344-0.29-2.338-0.674-2.977-1.152c-0.643-0.481-0.963-1.155-0.963-2.027c0-0.859,0.363-1.584,1.087-2.179
			c0.724-0.595,1.682-0.889,2.875-0.889c1.268,0,2.271,0.313,3.014,0.943c0.741,0.624,1.095,1.411,1.06,2.354l-0.018,0.06h-1.156
			c0-0.615-0.264-1.152-0.786-1.611c-0.524-0.456-1.228-0.686-2.115-0.686c-0.909,0-1.588,0.196-2.045,0.586
			c-0.452,0.39-0.68,0.845-0.68,1.369c0,0.515,0.195,0.945,0.588,1.282c0.393,0.338,1.172,0.637,2.346,0.889
			c1.334,0.303,2.338,0.709,3.004,1.226c0.666,0.522,0.999,1.226,0.999,2.116c0,0.94-0.38,1.696-1.141,2.276
			c-0.759,0.581-1.76,0.871-3.008,0.871c-1.368,0-2.44-0.325-3.221-0.975c-0.778-0.653-1.147-1.428-1.104-2.328l0.019-0.064h1.143
			c0.05,0.808,0.382,1.392,0.996,1.759c0.61,0.366,1.333,0.548,2.167,0.548c0.901,0,1.612-0.197,2.132-0.592
			C181.97,106.248,182.231,105.769,182.231,105.208z"/>
	</g>
</g>
<g>
	<g>
		<g>
			<g>
				<rect x="10.066" y="139.181" fill="#4285F4" width="8.195" height="26.6"/>
				<rect x="34.578" y="139.181" fill="#00BFA5" width="8.24" height="26.6"/>
				<polygon fill="#1CE9B6" points="34.624,165.782 42.818,165.782 30.565,143.213 22.369,143.213 				"/>
			</g>
			<polygon fill="#4FC3F7" points="18.26,165.782 10.066,165.782 22.321,143.213 30.514,143.213 			"/>
		</g>
		<g>
			<path fill="#4285F4" d="M5.248,169.817v-34.576h8.967V130H2.068C0.932,130,0,130.931,0,132.066v40.614
				c0,1.135,0.932,2.286,2.068,2.286h12.147v-5.149H5.248z"/>
			<path fill="#00BFA5" d="M47.635,169.817v-34.576h-8.967V130h12.15c1.134,0,2.066,0.931,2.066,2.066v40.614
				c0,1.135-0.932,2.286-2.066,2.286h-12.15v-5.149H47.635z"/>
		</g>
	</g>
	<g>
		<path fill="#FFFFFF" d="M74.252,145.281l0.459,2.317l0.06,0.012l0.572-2.329l3.202-10.855h1.176l3.202,10.855l0.551,2.339
			l0.063-0.01l0.487-2.329l2.735-10.855h1.269l-3.89,15.141h-1.173l-3.4-11.615l-0.396-1.588h-0.063l-0.385,1.588l-3.431,11.615
			h-1.184l-3.891-15.141h1.28L74.252,145.281z"/>
		<path fill="#FFFFFF" d="M89.318,143.775c0-1.658,0.452-3.018,1.363-4.078c0.908-1.06,2.109-1.59,3.606-1.59
			c1.506,0,2.711,0.53,3.619,1.59c0.909,1.061,1.365,2.421,1.365,4.078v0.343c0,1.661-0.456,3.023-1.359,4.08
			c-0.906,1.056-2.104,1.585-3.604,1.585c-1.512,0-2.72-0.528-3.627-1.585c-0.91-1.057-1.363-2.418-1.363-4.08V143.775z
			 M90.566,144.112c0,1.303,0.328,2.393,0.985,3.283c0.662,0.886,1.58,1.327,2.756,1.327c1.159,0,2.069-0.441,2.731-1.327
			c0.66-0.89,0.994-1.979,0.994-3.283v-0.342c0-1.282-0.334-2.368-1.001-3.262c-0.662-0.893-1.578-1.341-2.745-1.341
			c-1.162,0-2.073,0.448-2.735,1.341c-0.657,0.894-0.985,1.98-0.985,3.262V144.112z"/>
		<path fill="#FFFFFF" d="M102.916,138.316l0.117,1.861c0.361-0.66,0.84-1.168,1.44-1.529c0.6-0.36,1.316-0.541,2.147-0.541
			c0.858,0,1.577,0.209,2.157,0.626c0.58,0.413,0.994,1.049,1.241,1.901c0.34-0.792,0.826-1.407,1.451-1.857
			c0.628-0.445,1.391-0.67,2.292-0.67c1.202,0,2.128,0.4,2.778,1.194c0.651,0.799,0.979,2.032,0.979,3.703v6.562h-1.248v-6.596
			c0-1.389-0.245-2.37-0.734-2.945c-0.49-0.569-1.17-0.857-2.043-0.857c-0.965,0-1.71,0.3-2.237,0.907
			c-0.527,0.604-0.851,1.376-0.975,2.322c0,0.05,0.001,0.12,0.004,0.209c0.004,0.092,0.005,0.155,0.005,0.197v6.763h-1.256v-6.596
			c0-1.36-0.25-2.335-0.746-2.923c-0.497-0.587-1.178-0.879-2.043-0.879c-0.88,0-1.577,0.225-2.093,0.671
			c-0.521,0.45-0.881,1.054-1.087,1.807v7.921h-1.257v-11.25H102.916z"/>
		<path fill="#FFFFFF" d="M124.96,149.783c-1.407,0-2.574-0.519-3.507-1.559c-0.934-1.039-1.398-2.357-1.398-3.95v-0.572
			c0-1.608,0.461-2.944,1.387-4.005c0.925-1.06,2.048-1.59,3.362-1.59c1.382,0,2.467,0.439,3.256,1.312
			c0.791,0.873,1.186,2.034,1.186,3.491v1.063h-7.944v0.299c0,1.266,0.336,2.324,1.009,3.174c0.67,0.853,1.556,1.276,2.65,1.276
			c0.776,0,1.438-0.106,1.986-0.321c0.546-0.216,1.016-0.523,1.406-0.927l0.529,0.852c-0.425,0.447-0.959,0.8-1.607,1.065
			C126.626,149.652,125.856,149.783,124.96,149.783z M124.803,139.168c-0.923,0-1.692,0.351-2.317,1.052
			c-0.623,0.7-0.985,1.583-1.092,2.64l0.022,0.05h6.593v-0.31c0-0.975-0.29-1.79-0.865-2.446
			C126.57,139.494,125.788,139.168,124.803,139.168z"/>
		<path fill="#FFFFFF" d="M132.81,138.316l0.113,1.964c0.36-0.692,0.85-1.228,1.461-1.606c0.615-0.377,1.342-0.567,2.179-0.567
			c1.222,0,2.148,0.374,2.788,1.119c0.636,0.745,0.957,1.906,0.957,3.486v6.854h-1.25v-6.857c0-1.289-0.239-2.203-0.724-2.739
			c-0.481-0.535-1.164-0.802-2.051-0.802c-0.873,0-1.584,0.232-2.135,0.692c-0.553,0.465-0.95,1.074-1.193,1.839v7.867h-1.248
			v-11.25H132.81z"/>
		<path fill="#FFFFFF" d="M81.761,156.995h-5.212v14.081h-1.248v-14.081h-5.208v-1.059h11.668V156.995z"/>
		<path fill="#FFFFFF" d="M87.071,171.291c-1.406,0-2.578-0.519-3.506-1.558c-0.934-1.038-1.402-2.356-1.402-3.951v-0.572
			c0-1.607,0.466-2.943,1.391-4.004c0.923-1.059,2.043-1.59,3.362-1.59c1.377,0,2.463,0.438,3.253,1.311
			c0.792,0.873,1.184,2.036,1.184,3.491v1.061H83.41v0.302c0,1.267,0.34,2.325,1.012,3.174c0.671,0.854,1.554,1.277,2.649,1.277
			c0.778,0,1.438-0.106,1.987-0.321c0.548-0.214,1.018-0.523,1.402-0.925l0.531,0.85c-0.421,0.447-0.956,0.801-1.607,1.065
			C88.738,171.162,87.966,171.291,87.071,171.291z M86.917,160.676c-0.923,0-1.697,0.351-2.318,1.053
			c-0.626,0.701-0.99,1.58-1.092,2.639l0.022,0.05h6.59v-0.309c0-0.977-0.287-1.79-0.862-2.445
			C88.679,161.005,87.902,160.676,86.917,160.676z"/>
		<path fill="#FFFFFF" d="M97.991,170.231c0.823,0,1.55-0.235,2.183-0.703c0.629-0.468,0.943-1.123,0.943-1.957h1.103l0.021,0.064
			c0.035,1.038-0.382,1.907-1.248,2.607c-0.866,0.701-1.87,1.05-3.003,1.05c-1.535,0-2.716-0.524-3.554-1.573
			c-0.834-1.05-1.252-2.403-1.252-4.052v-0.435c0-1.636,0.419-2.982,1.257-4.036c0.841-1.052,2.017-1.58,3.537-1.58
			c1.233,0,2.26,0.365,3.082,1.092c0.821,0.728,1.218,1.687,1.189,2.87l-0.021,0.064h-1.113c0-0.902-0.302-1.62-0.91-2.159
			c-0.605-0.536-1.349-0.807-2.228-0.807c-1.209,0-2.101,0.434-2.677,1.294c-0.579,0.86-0.872,1.947-0.872,3.255v0.435
			c0,1.331,0.29,2.425,0.867,3.283C95.87,169.805,96.768,170.231,97.991,170.231z"/>
		<path fill="#FFFFFF" d="M106.1,161.747c0.374-0.67,0.873-1.194,1.498-1.569c0.622-0.374,1.35-0.562,2.181-0.562
			c1.186,0,2.097,0.369,2.728,1.103c0.636,0.736,0.953,1.872,0.953,3.421v6.935h-1.248v-6.972c0-1.22-0.242-2.098-0.723-2.629
			c-0.481-0.531-1.146-0.798-1.99-0.798c-0.852,0-1.563,0.225-2.136,0.671c-0.574,0.451-0.995,1.048-1.264,1.788v7.941h-1.247
			v-16.222h1.247V161.747z"/>
		<path fill="#FFFFFF" d="M117.754,159.826l0.117,1.858c0.361-0.657,0.839-1.166,1.44-1.527c0.597-0.36,1.312-0.54,2.147-0.54
			c0.858,0,1.578,0.21,2.157,0.623c0.579,0.416,0.992,1.051,1.241,1.904c0.34-0.792,0.821-1.408,1.451-1.856
			c0.629-0.445,1.39-0.67,2.291-0.67c1.202,0,2.128,0.4,2.778,1.195c0.648,0.798,0.978,2.031,0.978,3.702v6.562h-1.251v-6.596
			c0-1.387-0.241-2.37-0.731-2.945c-0.49-0.572-1.169-0.858-2.042-0.858c-0.965,0-1.711,0.302-2.237,0.907
			c-0.527,0.605-0.852,1.377-0.975,2.322c0,0.05,0.001,0.12,0.005,0.209c0.004,0.092,0.007,0.155,0.007,0.198v6.762h-1.262v-6.596
			c0-1.36-0.247-2.334-0.741-2.923c-0.498-0.588-1.179-0.88-2.044-0.88c-0.881,0-1.578,0.225-2.094,0.671
			c-0.519,0.451-0.882,1.054-1.087,1.809v7.92h-1.262v-11.25H117.754z"/>
		<path fill="#FFFFFF" d="M142.697,171.076c-0.081-0.381-0.141-0.714-0.177-0.989c-0.035-0.275-0.049-0.557-0.049-0.84
			c-0.417,0.585-0.973,1.077-1.665,1.467c-0.692,0.386-1.473,0.579-2.338,0.579c-1.097,0-1.948-0.289-2.554-0.873
			c-0.607-0.583-0.909-1.36-0.909-2.339c0-1.039,0.445-1.873,1.344-2.494c0.899-0.626,2.111-0.936,3.635-0.936h2.487v-1.392
			c0-0.806-0.259-1.435-0.775-1.894c-0.516-0.456-1.239-0.686-2.169-0.686c-0.865,0-1.585,0.219-2.157,0.653
			c-0.573,0.438-0.857,0.972-0.857,1.605l-1.145-0.011l-0.022-0.063c-0.043-0.838,0.342-1.589,1.15-2.253
			c0.806-0.661,1.833-0.992,3.083-0.992c1.24,0,2.237,0.315,2.994,0.948c0.756,0.628,1.134,1.532,1.134,2.714v5.529
			c0,0.396,0.023,0.782,0.066,1.155c0.044,0.375,0.12,0.746,0.223,1.113H142.697z M138.612,170.189c0.894,0,1.686-0.206,2.372-0.627
			c0.686-0.421,1.18-0.956,1.487-1.607v-2.349h-2.509c-1.126,0-2.029,0.237-2.708,0.721c-0.675,0.481-1.012,1.08-1.012,1.794
			c0,0.61,0.209,1.108,0.63,1.494C137.289,169.997,137.87,170.189,138.612,170.189z"/>
		<path fill="#FFFFFF" d="M149.715,165.585h-1.434v5.49h-1.248v-16.222h1.248v9.671h1.31l4.179-4.699h1.457l0.021,0.05l-4.502,5.069
			l4.967,6.079l-0.031,0.053h-1.423L149.715,165.585z"/>
		<path fill="#FFFFFF" d="M161.497,171.291c-1.407,0-2.575-0.519-3.508-1.558c-0.932-1.038-1.402-2.356-1.402-3.951v-0.572
			c0-1.607,0.466-2.943,1.393-4.004c0.926-1.059,2.043-1.59,3.362-1.59c1.381,0,2.465,0.438,3.253,1.311
			c0.793,0.873,1.189,2.036,1.189,3.491v1.061h-7.945v0.302c0,1.267,0.336,2.325,1.008,3.174c0.671,0.854,1.556,1.277,2.651,1.277
			c0.776,0,1.437-0.106,1.986-0.321c0.546-0.214,1.018-0.523,1.406-0.925l0.53,0.85c-0.424,0.447-0.959,0.801-1.608,1.065
			C163.162,171.162,162.389,171.291,161.497,171.291z M161.341,160.676c-0.923,0-1.695,0.351-2.319,1.053
			c-0.624,0.701-0.989,1.58-1.092,2.639l0.021,0.05h6.592v-0.309c0-0.977-0.287-1.79-0.864-2.445
			C163.104,161.005,162.326,160.676,161.341,160.676z"/>
		<path fill="#FFFFFF" d="M173.423,160.895l-0.928-0.062c-0.782,0-1.425,0.221-1.927,0.662c-0.503,0.439-0.862,1.045-1.076,1.814
			v7.767h-1.247v-11.25h1.091l0.156,1.868v0.128c0.325-0.692,0.763-1.233,1.31-1.622c0.548-0.388,1.198-0.583,1.954-0.583
			c0.159,0,0.313,0.013,0.462,0.037c0.152,0.025,0.273,0.048,0.369,0.077L173.423,160.895z"/>
		<path fill="#FFFFFF" d="M182.231,168.208c0-0.524-0.217-0.982-0.652-1.378c-0.431-0.395-1.214-0.715-2.345-0.967
			c-1.344-0.29-2.338-0.674-2.977-1.152c-0.643-0.481-0.963-1.155-0.963-2.027c0-0.859,0.363-1.584,1.087-2.179
			c0.724-0.595,1.682-0.889,2.875-0.889c1.268,0,2.271,0.313,3.014,0.943c0.741,0.624,1.095,1.411,1.06,2.354l-0.018,0.06h-1.156
			c0-0.615-0.264-1.152-0.786-1.611c-0.524-0.456-1.228-0.686-2.115-0.686c-0.909,0-1.588,0.196-2.045,0.586
			c-0.452,0.39-0.68,0.845-0.68,1.369c0,0.515,0.195,0.945,0.588,1.282c0.393,0.338,1.172,0.637,2.346,0.889
			c1.334,0.303,2.338,0.709,3.004,1.226c0.666,0.522,0.999,1.226,0.999,2.116c0,0.94-0.38,1.696-1.141,2.276
			c-0.759,0.581-1.76,0.871-3.008,0.871c-1.368,0-2.44-0.325-3.221-0.975c-0.778-0.653-1.147-1.428-1.104-2.328l0.019-0.064h1.143
			c0.05,0.808,0.382,1.392,0.996,1.759c0.61,0.366,1.333,0.548,2.167,0.548c0.901,0,1.612-0.197,2.132-0.592
			C181.97,169.248,182.231,168.769,182.231,168.208z"/>
	</g>
</g>
</svg>
